<?xml version="1.0" standalone="no"?>
<!DOCTYPE svg PUBLIC "-//W3C//DTD SVG 1.1//EN" "http://www.w3.org/Graphics/SVG/1.1/DTD/svg11.dtd" >
<svg xmlns="http://www.w3.org/2000/svg">
<metadata></metadata>
<defs>
<font id="bistroscriptregular" horiz-adv-x="710" >
<font-face units-per-em="2048" ascent="1638" descent="-410" />
<missing-glyph horiz-adv-x="358" />
<glyph horiz-adv-x="2048" />
<glyph horiz-adv-x="2048" />
<glyph unicode="&#xd;" horiz-adv-x="2048" />
<glyph unicode=" "  horiz-adv-x="358" />
<glyph unicode="&#x09;" horiz-adv-x="358" />
<glyph unicode="&#xa0;" horiz-adv-x="358" />
<glyph unicode="!" horiz-adv-x="647" d="M231 92q-5 54 30.5 96.5t86.5 42.5q59 0 94 -33t39 -96q4 -51 -31.5 -88t-84.5 -37q-56 0 -93 31t-41 84zM328 414l57 983q38 26 121 38q112 16 128 -31q3 -11 1 -24q-6 -44 -51 -284.5t-87 -459.5l-42 -218q-15 -37 -57 -38t-70 34z" />
<glyph unicode="&#x22;" horiz-adv-x="512" d="M121 1341q89 63 140.5 40t51.5 -115q0 -89 -45 -209q-47 -125 -94 -134q-19 -4 -35 13q41 216 -18 405zM408 1341q89 63 140.5 40t51.5 -115q0 -89 -45 -209q-47 -125 -94 -134q-19 -3 -35 13q41 216 -18 405z" />
<glyph unicode="#" horiz-adv-x="1462" d="M135.5 473q14.5 41 61.5 41l227 -2l119 434l-240 2q-16 57 -0.5 98t62.5 41l215 -2l120 441q58 43 113 34q42 -6 43 -39q0 -8 -2 -16l-121 -420l408 -4l121 445q57 43 112 34q42 -6 43 -39q0 -8 -2 -16l-123 -424l244 -2q23 -64 -14 -103.5t-95 -37.5l-174 2l-125 -434 h242q23 -64 -13.5 -103.5t-94.5 -37.5l-172 2l-127 -447q-44 -29 -77.5 -33.5t-47 13t-4.5 49.5l112 418l-416 4l-129 -451q-44 -29 -77.5 -33.5t-47 13t-4.5 49.5l115 424l-250 2q-16 57 -1.5 98zM569 510l416 -2l117 432l-408 4z" />
<glyph unicode="$" horiz-adv-x="802" d="M72 203q0 75 39.5 129.5t101.5 54.5q26 0 46 -9.5t20 -29.5q0 -6 -16.5 -61t-16.5 -111q0 -49 21.5 -82t58.5 -45l57 483q-96 74 -119 96q-109 101 -127 242q-4 33 -4 70q0 202 105 341.5t254 180.5l38 330q51 42 92 35t35 -55l-36 -295q62 -4 109 -30t74.5 -67 t40.5 -89.5t13 -102.5q0 -118 -54 -211.5t-130 -93.5q-25 0 -45.5 9.5t-20.5 29.5q0 5 16 50t32 113t16 129q0 120 -66 150l-86 -668q39 -35 58.5 -54t51 -56.5t47.5 -69.5t29.5 -80t14.5 -102q-3 -135 -90 -235t-203 -130l-39 -315q-63 -42 -86.5 -32t-17.5 61l30 276 q-111 12 -177 83.5t-66 160.5zM342 1006q0 -114 72 -203l63 547q-59 -40 -96.5 -133t-38.5 -211zM440 55q47 21 77 69.5t30 125.5q0 106 -60 182z" />
<glyph unicode="%" horiz-adv-x="1390" d="M92 977q0 114 42 227.5t124.5 194t183.5 80.5q98 0 147.5 -65t49.5 -169q0 -114 -47.5 -233.5t-132.5 -203t-180 -83.5q-93 0 -140 70.5t-47 181.5zM151.5 47.5q-2.5 23.5 14.5 50.5l985 1356q63 10 90 -15t-4 -65l-977 -1372q-47 -5 -76.5 8.5t-32 37zM256 1126 q0 -107 30 -187.5t79 -80.5q54 0 90.5 89t36.5 220q0 83 -20.5 138t-61.5 55q-65 0 -109.5 -64.5t-44.5 -169.5zM762 211q0 -102 50 -165.5t146 -63.5q99 0 182.5 73t128 180t44.5 214q0 95 -55.5 159t-157.5 64q-135 0 -236.5 -132t-101.5 -329zM924 373q0 71 43.5 130.5 t105.5 59.5q44 0 66 -48t22 -155q0 -113 -36.5 -185.5t-90.5 -72.5q-50 0 -80 71.5t-30 199.5z" />
<glyph unicode="&#x26;" horiz-adv-x="1253" d="M12 240q0 62 16.5 118t40 97.5t64.5 86t75 73.5t87 71q-70 188 -70 324q0 118 34 210.5t90.5 147.5t125 83t143.5 28q110 0 175 -74.5t65 -196.5q0 -58 -19 -113t-47.5 -98t-75 -90.5t-86.5 -81t-97 -79.5q-26 -21 -39 -31q58 -143 147 -272t188 -224q33 84 33 178 q0 165 -59 285q22 28 52 38t60.5 -1t57 -38t43 -78t16.5 -116q0 -181 -117 -340q122 -88 205 -88q55 0 100.5 36.5t88.5 144.5q23 18 50.5 8t20.5 -37q-29 -108 -128 -193.5t-191 -85.5q-137 0 -273 84q-179 -145 -382 -145q-175 0 -284.5 99t-109.5 270zM219 287 q0 -143 78 -218t219 -75q113 0 203 72q-113 90 -210.5 224t-166.5 283q-123 -140 -123 -286zM416 1087q0 -129 43 -272q101 87 157 186t56 234q0 71 -33.5 105t-83.5 34q-41 0 -70 -25.5t-43 -70.5t-20 -91t-6 -100z" />
<glyph unicode="'" horiz-adv-x="225" d="M121 1341q89 63 140.5 40t51.5 -115q0 -89 -45 -209q-47 -125 -94 -134q-19 -4 -35 13q41 216 -18 405z" />
<glyph unicode="(" horiz-adv-x="563" d="M145 475q1 198 52 404.5t142 392.5t224.5 345.5t290.5 260.5q32 19 45 3t10 -58q-177 -153 -303.5 -374.5t-188.5 -456.5t-67 -472q-8 -298 78 -539t246 -350q-2 -32 -20 -48t-50 -5q-119 64 -208.5 159.5t-144 212.5t-81 248.5t-25.5 276.5z" />
<glyph unicode=")" horiz-adv-x="665" d="M-162 -367q177 153 303.5 374.5t188.5 456.5t67 472q8 299 -77.5 540t-245.5 349q2 32 19.5 48t49.5 5q119 -64 208.5 -159.5t144 -212.5t81 -248.5t25.5 -276.5q-1 -265 -87.5 -536t-249 -502t-371.5 -365q-32 -19 -45.5 -3t-10.5 58z" />
<glyph unicode="*" horiz-adv-x="651" d="M78 1129q5 22 24 36q136 0 220 2q-47 69 -89 136q-32 57 2 95t105 46l121 -209l84 125q81 107 141 -4q-39 -50 -135 -185q105 3 184 3q38 -1 48 -27.5t-11 -67.5q-55 -2 -215 -14q38 -68 107 -180q10 -24 9.5 -46t-25.5 -37t-70 -14q-79 119 -146 216q-85 -123 -127 -177 q-24 -30 -51 -25t-47 46q52 73 135 203l-170 -11q-33 0 -57 14t-33 33.5t-4 41.5z" />
<glyph unicode="+" horiz-adv-x="1114" d="M143 481q-24 156 84 156l265 -2l34 323q2 15 18 27.5t39 19t52.5 1.5t54.5 -23l-47 -348h340q12 -31 13.5 -67t-17 -66.5t-51.5 -30.5l-307 4l-46 -332q-5 -32 -56 -33.5t-79 35.5l35 332z" />
<glyph unicode="," horiz-adv-x="456" d="M102 -236q65 69 91 131.5t13.5 108.5t-56.5 76q-15 10 -19.5 28.5t2.5 39t23 39t46 30.5t68 12q68 0 104 -71q41 -83 7 -194q-46 -144 -199 -240q-32 -19 -56 -3.5t-24 43.5z" />
<glyph unicode="-" horiz-adv-x="501" d="M33.5 436.5q2.5 22.5 9.5 38.5l377 -2q37 -1 47.5 -40.5t-10.5 -80.5l-346 -16q-32 0 -51.5 16t-24 39t-2 45.5z" />
<glyph unicode="." horiz-adv-x="479" d="M178 92q0 56 32.5 97.5t84.5 41.5q60 0 96.5 -36.5t36.5 -102.5q0 -47 -35.5 -81t-81.5 -34q-57 0 -95 31t-38 84z" />
<glyph unicode="/" horiz-adv-x="536" d="M-33 -121l660 1729q49 18 88 18.5t57.5 -19.5t-0.5 -67l-704 -1739q-67 -8 -93.5 10t-7.5 68z" />
<glyph unicode="0" horiz-adv-x="997" d="M129 559q0 228 80.5 440t214.5 343t281 131q155 0 244 -142.5t89 -394.5q0 -185 -37 -345.5t-97 -271t-135.5 -190t-152.5 -117t-149 -37.5q-26 0 -52.5 5.5t-60.5 22t-64.5 42.5t-60.5 71.5t-51.5 104.5t-35 146t-13.5 192zM330 618q0 -94 12 -180t37 -161t69.5 -119.5 t102.5 -44.5q59 0 114 57t95.5 153t65 230.5t24.5 282.5q0 224 -59 353.5t-170 129.5q-57 0 -110 -53t-93 -144t-64 -223t-24 -281z" />
<glyph unicode="1" horiz-adv-x="727" d="M161 1073q-9 23 17 47l361 316q101 24 139 12t33 -57l-183 -1385q-43 -17 -76.5 -21.5t-55.5 9.5t-19 49q16 220 108 1180l-282 -187q-33 14 -42 37z" />
<glyph unicode="2" horiz-adv-x="731" d="M35 33q-1 73 36 163l9 21q37 16 100 10q202 315 306 567t104 404q0 85 -32 129.5t-93 44.5q-24 0 -46.5 -13t-44 -47t-37 -86.5t-23.5 -137.5t-5 -193q-49 -25 -86.5 -32t-61 7t-26.5 50q-10 126 17 232t81 176t129 108.5t162 38.5q125 0 198 -63.5t73 -188.5 q0 -163 -126 -418.5t-399 -599.5q25 -7 64.5 -19.5t67.5 -21.5t69.5 -20.5t71 -15.5t71.5 -7t72 4q17 2 28.5 -3.5t15 -19.5t5 -28t-2.5 -35.5t-7 -35.5t-8 -34q-2 -12 -19 -16q-72 -11 -124.5 -8t-113.5 20.5t-105.5 36.5t-99.5 39t-95 27q-15 -16 -41 -47.5t-31 -36.5 q-52 -25 -53 49z" />
<glyph unicode="3" horiz-adv-x="798" d="M53 236q0 49 17.5 94t44 73t62.5 27.5t69 -37.5q-51 -143 -24 -248.5t122 -105.5q116 0 191 109t75 266q0 115 -64.5 165.5t-201.5 18.5q-21 19 -29.5 31.5t-5.5 27.5t21 33q137 141 202.5 283.5t65.5 261.5q0 137 -90 137q-64 0 -108.5 -92.5t-47.5 -282.5 q-153 -78 -153 25q0 112 33.5 202t88 143t118 80.5t128.5 27.5q96 0 158.5 -62t62.5 -166q0 -105 -75 -239.5t-226 -259.5q153 26 232.5 -46t79.5 -219q0 -86 -36 -178.5t-96.5 -170t-150 -127.5t-188.5 -50q-111 0 -193 80t-82 199z" />
<glyph unicode="4" horiz-adv-x="872" d="M33.5 461.5q-8.5 29.5 13.5 54.5l594 942q90 -1 125.5 -28.5t28.5 -73.5l-109 -836h143q24 0 40 -5.5t22.5 -17.5t9.5 -23.5t-1 -30.5t-7 -30.5t-10 -31.5h-215l-47 -375q-43 -17 -78.5 -21.5t-60 9.5t-21.5 49q7 123 28 338h-393q-54 51 -62.5 80.5zM158 516q73 0 179 1 t165 1q21 232 63 637z" />
<glyph unicode="5" horiz-adv-x="845" d="M82 203q0 75 39.5 129.5t101.5 54.5q26 0 46 -9.5t20 -29.5q0 -6 -16.5 -61t-16.5 -111q0 -62 35.5 -97.5t93.5 -35.5q115 0 190.5 126.5t75.5 346.5q0 316 -368 176q-79 -34 -98 -34q-26 -1 -27 26q-1 4 0 10l86 697q2 24 13 41t34 16q161 -9 276 -2.5t271 31.5 q26 4 38.5 -12.5t12.5 -45.5q0 -107 -90 -119q-181 -18 -363 -8l-90 -458q112 39 199.5 48t143.5 -8.5t92 -58t50.5 -93.5t14.5 -122q0 -155 -65.5 -303.5t-179 -244t-241.5 -95.5q-124 0 -201 74.5t-77 171.5z" />
<glyph unicode="6" horiz-adv-x="874" d="M102 514q0 181 37.5 340.5t99.5 271t140 192.5t159.5 120t157.5 39q157 0 210 -120q40 -91 9 -200q-26 -91 -80 -121q-19 -10 -38 -10q-24 0 -44.5 9.5t-21.5 29.5q84 299 -84 299q-77 0 -137 -48.5t-99.5 -138.5t-62.5 -211t-31 -274q53 65 126.5 99t144.5 34 q32 0 65 -6.5t74.5 -28.5t72.5 -57t52.5 -99t21.5 -147q0 -134 -53 -251.5t-151.5 -190t-218.5 -72.5q-49 0 -97.5 19.5t-94.5 62.5t-80.5 104.5t-55.5 153t-21 201.5zM313 557q-14 -217 43 -354t138 -137t128.5 102.5t47.5 271.5q0 113 -33 180t-84 79.5t-115 -24 t-125 -118.5z" />
<glyph unicode="7" horiz-adv-x="731" d="M104.5 1328q6.5 32 19.5 64t32 64q284 -54 702 -16q38 3 51.5 -25.5t3.5 -75.5q-107 -147 -195.5 -295t-146 -262.5t-116 -264.5t-90.5 -243.5t-84 -257.5q-47 -17 -87 -19.5t-63.5 17t-9.5 62.5q88 303 246 613t356 575q-209 -38 -571 -13q-31 2 -42.5 23.5t-5 53.5z " />
<glyph unicode="8" horiz-adv-x="899" d="M63 348q0 52 19 100.5t44.5 83t73.5 75t82.5 64.5t94.5 63q9 6 14 9q-137 144 -137 322q0 200 100.5 308t266.5 108q105 0 191.5 -85t86.5 -204q0 -63 -22 -121t-65 -110t-85.5 -91t-105.5 -88q17 -16 55 -51t56.5 -52.5t49 -48t45.5 -51t32.5 -47t24.5 -50.5t7 -48 q0 -68 -52 -155.5t-126 -159t-159 -121t-148 -49.5q-79 0 -159.5 58t-132 151.5t-51.5 189.5zM283 391q0 -142 54.5 -220.5t139.5 -78.5q103 0 159 80.5t56 194.5q0 21 -3 40.5t-12.5 39.5t-16.5 34.5t-24.5 34.5t-26 30.5t-32.5 32.5t-32.5 29t-37.5 31.5t-36 30.5 q-91 -73 -139.5 -138.5t-48.5 -140.5zM381 1174q0 -84 43.5 -161t122.5 -159q73 61 113 128.5t40 152.5q0 119 -43.5 177t-113.5 58q-26 0 -52.5 -10.5t-52 -32.5t-41.5 -62t-16 -91z" />
<glyph unicode="9" horiz-adv-x="874" d="M134 185q-13 74 1 169q3 19 12.5 38.5t24 36t36.5 14t46 -28.5q-9 -78 11 -159.5t65 -136.5t100 -55q22 0 52 16t68 59.5t70 108t55.5 175.5t26.5 248q-108 -148 -262 -148q-32 0 -64 7t-72.5 31.5t-70.5 63t-50.5 109t-20.5 162.5q0 147 61 282t166 218.5t225 83.5 q58 0 107.5 -25.5t93 -82.5t69 -163t25.5 -252q0 -265 -79 -497t-209 -367t-275 -135q-46 0 -89.5 26.5t-76.5 77t-46 124.5zM365 936q0 -57 8 -109t24.5 -97.5t46.5 -73t70 -27.5q54 0 100.5 58t74.5 160t28 222q0 131 -48 212t-124 81q-79 0 -129.5 -120.5t-50.5 -305.5z " />
<glyph unicode=":" horiz-adv-x="493" d="M178 92q-5 54 30.5 96.5t86.5 42.5q59 0 94 -33t39 -96q4 -51 -32 -88t-85 -37q-56 0 -92.5 31t-40.5 84zM244 717q0 54 36.5 97.5t94.5 43.5q48 0 73 -29.5t25 -72.5q0 -52 -35.5 -93.5t-97.5 -41.5q-48 0 -72 27t-24 69z" />
<glyph unicode=";" horiz-adv-x="456" d="M102 -236q0 -28 24 -43.5t56 3.5q158 99 201 248q31 109 -11 190q-36 67 -102 67q-38 0 -68 -12t-46 -30.5t-23 -39t-2.5 -39t19.5 -28.5q44 -30 56.5 -76t-13.5 -108.5t-91 -131.5zM172 727q-5 54 30.5 96.5t86.5 42.5q59 0 94 -33t39 -96q4 -51 -32 -88t-85 -37 q-56 0 -92.5 31t-40.5 84z" />
<glyph unicode="&#x3c;" horiz-adv-x="1052" d="M121 487l43 144l747 297q55 -28 58 -80t-56 -74l-589 -213l553 -262q2 -33 -5.5 -57t-20.5 -35.5t-28.5 -17t-29.5 -5t-23 5.5z" />
<glyph unicode="=" horiz-adv-x="1114" d="M106 409.5q9 41.5 56 41.5l805 -9q30 -69 1 -106t-87 -35l-758 10q-26 57 -17 98.5zM143 784q9 41 56 41l805 -8q30 -69 1 -106t-87 -35l-758 10q-26 57 -17 98z" />
<glyph unicode="&#x3e;" horiz-adv-x="1052" d="M83 258q-3 52 56 74l590 213l-553 262q-2 33 5.5 56.5t20.5 35.5t28.5 17t29.5 4.5t23 -5.5l649 -297l-43 -143l-748 -297q-55 28 -58 80z" />
<glyph unicode="?" horiz-adv-x="731" d="M145 1022q0 90 23.5 166.5t61.5 128.5t88 88.5t102 53t104 16.5q147 0 224 -86.5t77 -245.5q0 -76 -20.5 -141.5t-53 -112.5t-72 -90t-78 -83t-70 -81.5t-50 -96t-16.5 -116.5q1 -12 -7 -22t-21.5 -14.5t-30 -4.5t-35 8.5t-33.5 24.5q-1 67 14 124t40 99t55.5 82.5 t61.5 84t56.5 92t41.5 117t16 150.5q0 95 -31 152t-90 57q-74 0 -127 -92.5t-56 -282.5q-49 -25 -88 -32t-62.5 7t-23.5 50zM262 92q-5 54 30.5 96.5t86.5 42.5q59 0 94 -33t39 -96q4 -51 -32 -88t-85 -37q-56 0 -92.5 31t-40.5 84z" />
<glyph unicode="@" horiz-adv-x="1624" d="M61 262q0 235 68.5 435t190 339.5t292.5 218t371 78.5q270 0 428 -171.5t158 -467.5q0 -287 -152 -489q-103 -138 -236 -185q-120 -43 -196 11q-48 34 -63 102q-89 -151 -197 -151q-71 0 -119 45.5t-69 117.5t-21 166q0 92 25 183t71.5 168.5t123 125.5t169.5 48 q109 0 149.5 -48t43.5 -141q-103 -364 -39 -493q36 -75 114 -44.5t149 143.5q102 161 108 363v21q0 547 -551 547q-143 0 -264 -61t-208 -172.5t-135.5 -276.5t-48.5 -365q0 -93 20.5 -188t69 -189.5t118 -167t177.5 -118t238 -45.5q186 0 371 106q22 -12 24.5 -38 t-18.5 -44q-92 -71 -194 -109t-234 -38q-119 0 -227.5 31.5t-201 96.5t-160.5 157t-106.5 220t-38.5 279zM696 268q0 -84 17.5 -137t48.5 -53q14 0 26.5 4.5t28.5 20.5t29 42t27 72.5t24.5 109t19 155t13.5 206.5q-20 49 -60 49q-53 0 -94.5 -78t-60.5 -183t-19 -208z" />
<glyph unicode="A" horiz-adv-x="1490" d="M0 135q0 52 15.5 96t40.5 70t53.5 39t56.5 7t47 -30q-31 -59 -37 -123q-2 -18 -2 -35q0 -45 12 -81q16 -52 55.5 -85.5t92.5 -33.5q192 0 420 479q-147 -14 -187 -14q-32 0 -49 17t-17.5 41.5t4 47t13.5 39.5q205 0 297 -2q133 305 340 920q80 32 134 32q9 0 17 -1 q58 -6 83 -36q24 -28 24 -70v-7q-5 -91 -24.5 -381t-28.5 -461h63q66 -1 77 -17q4 -6 4 -15q0 -16 -12 -40q-2 -7 -3 -10h-133q-14 -277 -19 -467q-39 -18 -83 -26q-17 -3 -32 -3q-24 0 -44 7q-32 12 -29 47q1 15 5.5 77t11.5 161.5t12 195.5q-142 -8 -299 -22 q-69 -136 -136.5 -239.5t-142.5 -185t-155.5 -124.5t-163.5 -43q-32 0 -65.5 6.5t-73.5 25.5t-70.5 48.5t-51 80t-20.5 115.5zM934 565q162 0 248 -2q22 456 26 658q-165 -425 -274 -656z" />
<glyph unicode="B" horiz-adv-x="1038" d="M2 1374q6 55 21 66q391 57 624 57q262 0 384 -68.5t122 -216.5q0 -142 -116 -324t-302 -356q134 -10 195 -63.5t61 -155.5q0 -41 -25 -103t-72 -129t-105 -126t-133 -97t-148 -38q-20 0 -40.5 7.5t-46 29.5t-46.5 58t-39.5 98.5t-29 144t-10.5 201.5q0 5 -1 9 q1 116 13 256q12 144 41.5 339.5t76.5 420.5q-164 -21 -403 -67h-5q-18 2 -18 35q1 10 2 22zM482 256v-37q0 -87 6 -137q8 -60 23.5 -96.5t30 -46t31.5 -9.5q95 0 157.5 98t62.5 242q0 84 -59 132t-163 51q-28 30 -28 57q0 20 16 39q161 161 263 363.5t102 322.5 q0 87 -55.5 128.5t-198.5 41.5h-37q-52 -280 -86.5 -508.5t-48.5 -378.5t-16 -262z" />
<glyph unicode="C" horiz-adv-x="866" d="M74 391q0 200 37.5 383.5t103.5 324.5t152.5 246t189 160.5t209.5 55.5q150 0 185 -155q10 -45 10 -96q0 -107 -44 -242q-55 -170 -137 -257q-48 -50 -90 -51q-35 0 -55.5 13t-21.5 28t3 26q82 137 137 317q39 128 39 205q0 66 -28 95q-20 20 -51 20q-75 0 -144 -67.5 t-119 -175.5t-87 -239.5t-55.5 -264t-18.5 -244.5q0 -101 14.5 -191.5t40.5 -163t64 -122.5t82 -76q34 -19 74 -20q12 0 25 2q54 8 110 47.5t118.5 124t122.5 207.5q31 11 50 11q18 0 26 -10q3 -5 3 -11.5t-3 -14.5q-56 -131 -128.5 -229.5t-148.5 -154t-156 -77.5 q-50 -14 -98 -14q-28 0 -55 5q-73 13 -138.5 60t-113.5 122t-76 184t-28 239z" />
<glyph unicode="D" horiz-adv-x="1200" d="M4 1356q-3 11 -4 23q0 13 4 29q7 30 23 52q350 43 605 43q44 0 86 -1q280 -9 424 -94t144 -249q0 -46 -20.5 -140t-60 -217t-93 -257.5t-124 -263.5t-147 -232t-169 -166t-183.5 -63q-81 0 -117 117q-31 98 -31 270q0 33 1 69q7 222 40.5 492t94.5 623q-166 -8 -448 -54 q-19 -3 -25 19zM516 110v-10q0 -98 10 -136q10 -40 27 -40q70 0 158.5 137.5t160.5 331t122 411.5t50 370q0 202 -364 221q-59 -332 -97 -596t-52.5 -423.5t-14.5 -265.5z" />
<glyph unicode="E" horiz-adv-x="776" d="M59 1008q48 201 181 353q154 177 348 196q21 2 43 2q133 0 196.5 -58t63.5 -180q0 -78 -26 -157.5t-67 -130t-81 -50.5q-28 0 -52.5 11t-25.5 28q24 52 44 120q19 66 31 142q4 26 4 49q0 44 -14 78q-22 51 -83 51q-128 0 -234 -154q-95 -140 -125 -327q-10 -63 -10 -116 q0 -106 40 -175q46 -77 134 -78q71 0 162 39q21 9 38 9q16 0 30 -8q24 -14 25 -54q0 -6 -1 -12q-219 -129 -302 -307q-39 -84 -38 -156q0 -43 13 -83q30 -84 110 -102q17 -4 37 -4q89 0 179.5 85t162.5 262q22 17 54 11q24 -5 24 -23q0 -6 -2 -13q-47 -141 -130.5 -242 t-176 -147.5t-185.5 -46.5q-70 0 -127.5 28t-94.5 75t-50 114q-6 33 -6 67q0 36 6 73q14 73 65 157.5t135 163.5q-202 6 -278 164q-38 81 -38 182q0 76 21 164z" />
<glyph unicode="F" horiz-adv-x="962" d="M2 1396q4 42 25 62q72 -1 169 -1q193 0 482 3l10 113q87 35 155 35h14q56 -4 56 -39v-6l-12 -99q76 0 228 1t229 1q26 0 36 -13q9 -11 8 -25v-6q-2 -18 -11 -36t-21 -30q-141 0 -485 -17l-64 -512q0 -1 -1 -4t-1 -4l150 4q38 1 52.5 -14.5t4 -40.5t-40.5 -51l-180 -6 q-25 -172 -54 -309.5t-56 -228t-59 -157.5t-58 -102.5t-57 -56.5t-53 -26t-48 -5q-48 0 -100 56.5t-95 144.5t-77 185.5t-54 188.5q22 18 50.5 32.5t59 22.5t53.5 -3t28 -43q30 -183 81 -340.5t95 -157.5q27 0 48.5 39t42 150t36.5 298l24 303l-290 -10q-23 0 -33 17 t-1 45.5t38 56.5l297 6l43 508q-508 -35 -609 -39q-27 0 -43 34q-13 28 -13 61q0 7 1 15z" />
<glyph unicode="G" horiz-adv-x="991" d="M55 -410q16 45 46.5 81t58.5 36q21 0 50 -22.5t60 -54.5t65 -64.5t75.5 -55t81.5 -22.5q84 0 144 164t83 452l22 234q-169 -369 -395 -369q-29 0 -62.5 16.5t-70.5 56t-66.5 96.5t-49 146.5t-19.5 196.5q0 127 28.5 265t85.5 268t133 233.5t179 166.5t215 63 q107 0 166 -59.5t63 -143.5v-25q0 -72 -18 -145q-20 -84 -65.5 -143.5t-90.5 -59.5q-35 0 -55 13t-21 28.5t2 26.5q35 75 53.5 140.5t20.5 112.5v11q0 41 -10 71q-12 34 -34.5 51t-53.5 17q-55 0 -108.5 -29t-103.5 -93.5t-87.5 -156.5t-60.5 -228.5t-23 -299.5 q0 -116 16.5 -207.5t43 -143.5t55 -78.5t57.5 -26.5q58 0 142 161t151 430q58 21 100 26q7 1 15 1q31 0 53 -17q21 -17 21 -55q0 -8 -1 -18l-43 -399q-17 -146 -44 -268.5t-57.5 -206.5t-67 -149.5t-71 -104t-69.5 -63.5t-61.5 -33.5t-49.5 -8.5q-120 0 -243 58t-185 128z " />
<glyph unicode="H" horiz-adv-x="1232" d="M-2 88q2 51 29.5 101.5t66.5 91.5t108 91t126.5 85t148.5 88q34 310 64 796l-369 -73q-6 -1 -11 -1q-25 -1 -43 31q-12 22 -13 46q0 19 8 38l549 78q8 2 16 2q24 0 48 -19q28 -23 28 -63v-8q-29 -410 -78 -708l108 69q24 163 66 308.5t100 263t136 187t165 69.5 q76 -1 115 -53q35 -48 36 -158q0 -11 -1 -23q-3 -84 -38.5 -165t-100 -155t-137.5 -137t-169 -131q-11 -96 -14 -219q-2 -47 -2 -89q0 -173 30 -265q37 -114 122 -113q118 0 194 187q33 19 56 6.5t16 -35.5q-37 -123 -130 -201t-194 -78q-161 0 -223 121q-54 106 -54 329 q0 32 1 67q3 81 12 167l-115 -71q-144 -746 -430 -746q-40 0 -93 40q-54 39 -95 109q-39 66 -39 133v7zM180 101q0 -47 36 -111q38 -68 73 -68q59 0 100 121t74 379q-135 -91 -207 -167q-76 -79 -76 -154zM971 874q260 227 270 490q1 16 1 30q0 44 -8 60q-10 22 -30 21 q-71 0 -134.5 -170.5t-98.5 -430.5z" />
<glyph unicode="I" horiz-adv-x="856" d="M-109 41q17 47 53.5 76.5t63.5 29.5q20 0 49 -24t61.5 -57.5t68.5 -67.5t82.5 -58t92.5 -24q33 0 77 90t85 241.5t74 328.5q32 176 46 374q7 101 7 192q0 87 -6 165q-3 47 -21 58q-11 7 -35 7q-13 0 -30 -2q-286 -43 -360 -59q-33 -7 -43 27q-4 15 -5 31q1 20 7 41 q12 39 30 44q54 8 514 8q79 0 115 -30t41 -91q6 -65 5 -138q0 -96 -9 -209q-17 -198 -62.5 -399.5t-109.5 -373t-154.5 -279.5t-187.5 -108q-119 0 -253 57t-196 150z" />
<glyph unicode="J" horiz-adv-x="884" d="M10 49q0 70 6 142.5t23 154.5t43 144t70 103.5t100 41.5q128 0 352 -141q129 486 129 755q0 104 -34.5 156.5t-116.5 52.5q-44 0 -113.5 -21.5t-156.5 -55t-130 -46.5q-32 -11 -50 15q-16 22 -16 55v7q2 37 19 56q117 34 284 59t253 25q125 0 205.5 -72t80.5 -204 q0 -95 -61.5 -354t-155.5 -523q84 -60 203 -159q49 -43 49 -73q0 -26 -35 -42q-120 100 -253 172q-56 -147 -115 -269t-126.5 -223t-141 -158t-144.5 -57q-50 0 -88.5 63t-59 167.5t-20.5 228.5zM123 160q0 -102 21 -204t55 -167t69 -65q56 0 138.5 182.5t162.5 458.5 q-192 84 -305 84q-141 0 -141 -289z" />
<glyph unicode="K" horiz-adv-x="1318" d="M31 508q22 18 50.5 32.5t58.5 22.5t53 -3.5t28 -43.5q30 -183 81 -340.5t95 -157.5q20 0 37.5 22.5t34.5 75t32 151t27 239.5l68 807q2 24 -9 36t-34 9l-449 -72q-15 0 -36 32t-23 61t29 36l626 62q9 1 18 1q41 0 73 -20q33 -20 33 -59q0 -7 -1 -15l-69 -540 q-7 -57 -29 -193q54 81 176 259t214 316.5t175 276.5q111 -8 111 -66q0 -26 -23 -63q-200 -309 -542 -737q34 -94 59 -159t55.5 -137t56.5 -118.5t56 -86.5t60.5 -58.5t62.5 -18.5q55 0 100 36.5t88 144.5q23 18 51 8q22 -8 22 -27q0 -5 -1 -10q-29 -108 -128.5 -193.5 t-191.5 -85.5q-266 0 -428 570q-114 -570 -313 -570q-58 0 -116.5 56.5t-103.5 145.5t-79.5 185t-54.5 189z" />
<glyph unicode="L" horiz-adv-x="931" d="M36 266q10 98 42 180q20 43 84 64q35 12 67 12q27 0 52 -8q54 -134 112 -244q38 136 68 314q-58 23 -113 56t-108.5 79t-93.5 98.5t-64.5 118t-24.5 133.5q1 55 31 99q29 42 68 42h6q12 -51 26.5 -101t42 -117t60 -123t81.5 -110.5t105 -88.5q52 333 74 704 q7 130 58.5 182t170.5 52q68 -135 114 -278.5t60 -283.5q6 -54 6 -103q0 -81 -14 -149q-24 -110 -105.5 -178.5t-215.5 -68.5h-4q-64 -253 -142 -412q94 -127 184 -155q24 -8 49 -7q64 0 126 54q86 75 161 254q23 18 51 10q22 -6 22 -25q0 -5 -1 -10q-50 -166 -156.5 -272.5 t-240.5 -112.5h-11q-129 0 -262 131q-93 -119 -186 -119q-72 0 -118 57q-46 56 -59 142q-7 47 -7 99q0 41 5 85zM182 58q1 -104 51 -105q42 0 99 133q-63 86 -113 197q-37 -118 -37 -220v-5zM637 618q12 -2 41 -2q75 0 121 62t54 156q2 20 2 41q0 77 -24 169 q-30 116 -96 213q-35 -349 -98 -639z" />
<glyph unicode="M" horiz-adv-x="1626" d="M2 1352q-1 5 -1 10q0 37 32 74l14 14l512 12h6q49 0 86 -32q31 -27 31 -73q0 -12 -2 -26q-80 -537 -125 -913q15 47 59 192.5t63 206t58 181.5t64 193t58.5 161.5t64.5 160.5q17 33 55 33q17 0 37 -6q68 -20 137 -90l-141 -1102q69 236 171.5 494t141.5 315q16 20 39 20 q10 0 22 -4q37 -14 79 -64.5t71 -115.5q-49 -197 -75 -405q-16 -128 -16 -237q0 -66 6 -125q16 -154 83 -154q37 0 73.5 36t75.5 132q26 11 44.5 10.5t26.5 -11.5q4 -6 4 -13t-3 -15q-40 -102 -109 -170t-153 -68q-89 0 -141 57.5t-69 177.5q-10 70 -10 157q0 61 5 131 q12 168 51 405q-54 -113 -112 -254.5t-137.5 -351t-106.5 -277.5q-75 -31 -116 -31q-11 0 -21 2q-35 9 -34 54q0 9 1 18q100 806 127 1182q-168 -407 -408 -1196q-60 -58 -118 -64q-6 -1 -11 -1q-43 0 -47 44q-1 8 0 17l127 1231q2 14 2 26q0 34 -13 48t-42 13q-10 0 -21 -1 l-348 -41q-5 -1 -10 -1q-32 0 -37 34z" />
<glyph unicode="N" horiz-adv-x="1226" d="M3 1345q-1 8 -1 17q0 38 29 75l12 13l514 12h7q56 0 86 -28q25 -23 24 -73q0 -15 -2 -32l-135 -1042q175 501 395 997q9 20 34 31t59 10t79 -27t86 -75q-50 -171 -84 -344t-48 -315q-11 -120 -12 -219v-36q2 -112 25 -174.5t62 -62.5q38 0 75 36t76 132q34 17 58 7 q17 -7 17 -21q0 -7 -3 -15q-40 -101 -110 -169.5t-154 -68.5q-39 0 -70 11t-61.5 41.5t-50.5 80.5t-31 132q-9 67 -9 152v40q2 110 21.5 266t56.5 348q-124 -262 -216.5 -483.5t-213.5 -548.5q-34 -8 -50.5 -11t-42.5 -6.5t-38 -0.5t-25.5 9.5t-17.5 21t-2 36.5l127 1242v9 q0 55 -62 55q-8 0 -18 -1l-358 -49q-23 -4 -28 28z" />
<glyph unicode="O" horiz-adv-x="964" d="M35 477q0 143 23 276t61 232.5t84 183t93.5 137t89 84.5t71.5 35q38 73 97 109.5t126 36.5q120 0 200.5 -148t80.5 -397q0 -108 -15 -262q68 12 150 43q23 -14 23 -36q0 -26 -23 -34q-89 -39 -162 -59q-25 -160 -74.5 -298t-110 -233.5t-129.5 -163.5t-136 -100.5 t-128 -32.5q-26 0 -52 5.5t-59 23t-61.5 45.5t-56.5 77t-47.5 112.5t-32 157t-12.5 206.5zM240 520q0 -149 26.5 -274.5t73.5 -199t104 -73.5q99 0 184 186t120 490h-9q-163 0 -253 110q-93 113 -93 355q0 87 17 174q-82 -151 -126 -367t-44 -401zM524 1257q0 -418 236 -487 q8 152 8 240q0 227 -78 341q-41 60 -84 60q-6 0 -12 -1q-49 -10 -65 -91q-5 -28 -5 -62z" />
<glyph unicode="P" horiz-adv-x="1224" d="M0 549q0 46 15.5 86t40.5 64t53.5 36t56.5 6t47 -30q-33 -59 -37 -123q-1 -11 0 -22q0 -50 16 -94q20 -52 72.5 -86t126.5 -34q46 0 82 10q3 29 45.5 439.5t59.5 605.5q-179 -19 -418 -90q-27 -8 -29 28q-1 41 21 80q7 11 12 15q207 47 378 67q129 15 230 15q34 0 64 -2 q122 -6 212.5 -32t144.5 -71.5t79.5 -101.5t25.5 -125q0 -104 -55.5 -227.5t-145.5 -237.5t-206.5 -215t-237.5 -166l-55 -459q-43 -17 -81 -21l-18 -2q-27 0 -46 11q-26 14 -23 49q2 32 33 348q-52 -14 -111 -14q-52 0 -97 6.5t-93.5 25.5t-83 50.5t-56.5 85.5t-22 125z M668 459q168 120 289.5 313.5t121.5 355.5q0 112 -72 186.5t-223 92.5z" />
<glyph unicode="Q" horiz-adv-x="964" d="M98 686q0 165 43 324t117.5 283.5t186 201t239.5 76.5q144 0 230.5 -134.5t86.5 -342.5q0 -267 -132.5 -574.5t-350.5 -521.5q63 -27 147 -79t160 -103t165 -105.5t177.5 -90.5t180.5 -54q45 -8 91 -8q49 0 99 10q99 18 193 76q31 18 44.5 9t13.5 -30.5t-11 -42.5 q-106 -69 -234 -87q-55 -8 -108 -8q-71 0 -139 14q-119 24 -256.5 72.5t-250 101.5t-241 105t-217.5 72q-39 -23 -61 -23q-12 0 -19 7q-35 35 -55 69.5t-21.5 64.5t22.5 49t76 24q12 1 26 1q47 0 116 -13q115 88 206.5 257.5t138 358t46.5 361.5q0 186 -55.5 302.5 t-157.5 116.5q-64 0 -117.5 -41t-89 -108t-60 -153.5t-35.5 -175.5t-11 -177q0 -174 46 -289.5t109 -115.5q43 0 53 112q3 39 3 82q0 81 -12 179q-19 148 -54 259q57 53 105 53q27 0 50 -16q66 -45 66 -172q0 -96 -15 -195t-44.5 -192t-83.5 -152t-123 -59 q-117 0 -200 120.5t-83 301.5z" />
<glyph unicode="R" horiz-adv-x="1173" d="M4 1343q-3 11 -2 24q0 17 4 35q8 32 29 50q311 22 529 22q71 0 133 -2q249 -10 356.5 -58t126.5 -152q3 -18 3 -38q-1 -60 -29 -132q-38 -96 -109.5 -189.5t-158.5 -179.5t-177 -152q83 -228 190 -349.5t197 -121.5q45 0 72.5 30.5t60.5 111.5q23 18 51 7q22 -8 22 -26 q0 -6 -2 -12q-14 -43 -36.5 -82.5t-55 -75.5t-77.5 -58t-95 -22t-101 16.5t-107.5 57.5t-107 102.5t-97.5 158.5t-80 218q-6 -57 -17.5 -160.5t-20.5 -188.5t-16 -161q-42 -16 -86 -21q-12 -1 -22 -1q-29 0 -53 10q-32 14 -27 49q35 270 53 419t43.5 397.5t42.5 490.5 q-76 -7 -173.5 -18t-159.5 -18t-76 -7q-21 0 -27 26zM549 584q4 5 26 20q104 68 191 181.5t130 234.5q31 87 31 156q0 28 -5 53q-12 64 -77.5 105.5t-154.5 41.5h-41q-35 -240 -100 -792z" />
<glyph unicode="S" horiz-adv-x="753" d="M69 120q19 90 80 124q26 14 56 14q29 0 49 -12t12 -37q-22 -66 -29 -122q-3 -27 -4 -52q1 -27 5 -51q8 -46 38.5 -72.5t83.5 -26.5q22 0 50 12t57 36t49 69t21 102q0 64 -22.5 119t-58.5 97t-79.5 83.5t-87 89t-79.5 102.5t-58.5 135.5t-22.5 176.5q0 142 43.5 267 t113 208t153.5 131t167 48q163 0 225 -134q31 -66 31 -145q0 -49 -12 -104q-27 -124 -97 -182q-37 -31 -79 -31q-29 0 -50 12t-16 37q9 23 19 54.5t25.5 87.5t19.5 106q2 23 1 46q0 26 -2 52q-4 48 -32 76t-78 28q-58 0 -109 -72t-80.5 -189t-29.5 -245q0 -77 20 -143.5 t52.5 -116t71.5 -95.5t78.5 -91t72 -92.5t52.5 -110t20 -133.5q0 -83 -36.5 -152.5t-93.5 -112.5t-122 -67t-125 -24q-163 0 -233 114q-37 59 -37 127q0 29 7 59z" />
<glyph unicode="T" horiz-adv-x="759" d="M0 485q46 48 102 66q15 5 28 5q33 0 42 -36q23 -233 52.5 -402t54.5 -169q105 0 184.5 378t116.5 1025q-338 -35 -428 -35q-32 0 -52 23.5t-25 55t-3 61.5t10 46q171 0 575.5 12.5t575.5 12.5q36 0 53 -3q16 -3 26 -16q6 -9 7 -22q1 -7 -1 -15q-4 -24 -20 -67h-32 q-148 0 -471 -31q-52 -736 -205 -1133t-348 -397q-70 0 -136 167t-106 474z" />
<glyph unicode="U" horiz-adv-x="1128" d="M148 482q0 145 18 304t59.5 340t102.5 361q52 39 112 49q22 4 41 3q32 -1 56 -11q34 -16 34 -48v-7q-88 -199 -144 -417q-55 -220 -71 -400q-10 -122 -11 -228q1 -52 3 -100q8 -148 39 -232t76 -84q37 0 92 104.5t110 268.5t103 392.5t68 451.5q88 66 158 66h12 q57 -5 63 -54q2 -21 -6 -47q-47 -172 -77 -326t-40 -264q-9 -100 -9 -186v-16q1 -92 11.5 -152t25.5 -101.5t30 -59t28 -17.5q37 0 74 36t76 132q34 17 58 8q16 -6 16 -22q0 -7 -3 -15q-40 -101 -109.5 -169.5t-154.5 -68.5q-103 0 -152 76.5t-69 237.5 q-60 -200 -160 -318.5t-198 -118.5q-60 0 -109.5 45t-82.5 129.5t-52 198.5q-19 111 -19 252q1 3 1 7z" />
<glyph unicode="V" horiz-adv-x="833" d="M-198 1342q-4 11 -5 24q0 33 27 78q186 14 444 14q67 0 105 -10q37 -10 57 -36q18 -24 18 -61v-7q-2 -42 -22 -113q-55 -190 -82.5 -388t-28.5 -349v-24q1 -137 11 -250q12 -123 31 -188t36 -65q28 0 67.5 58.5t83 176.5t81 272.5t64 370t30.5 445.5l-2 2q-42 28 -57 93 q-5 22 -5 44q0 41 19 80q29 59 100 66q76 -116 192 -116q87 0 197 65q29 18 39 -29q-36 -81 -123.5 -149.5t-183.5 -85.5q-56 -367 -126 -645t-143.5 -441.5t-146.5 -243.5t-145 -80q-66 0 -115 79t-72.5 219.5t-26.5 319.5v39q0 163 22 354q25 214 75 425q7 30 7 48 q0 16 -6 22q-9 9 -36 10q-12 0 -28 -2q-10 -1 -281 -51q-12 -2 -21 -2q-38 0 -50 31z" />
<glyph unicode="W" horiz-adv-x="1595" d="M2 1308q-2 10 -2 20q0 39 28 78l15 19l520 37q9 2 17 2q32 0 60 -24q36 -30 36 -111l-27 -1071l377 1208q47 17 81 26t61 10.5t40.5 -8.5t14.5 -32l34 -1458l291 1344q-21 31 -21 73q0 16 3 33q11 63 61 107q9 9 19 9t20 -9q57 -45 125 -65q52 -15 98 -16q14 0 28 2 q58 6 99 17t64 25q12 6 21 6q20 0 28 -29q-46 -95 -167 -167q-104 -61 -203 -62q-17 0 -33 2l-373 -1421q-44 -17 -82 -25q-36 -8 -67 -8h-4q-33 0 -52 16t-20 47l-62 1202l-348 -1067q-31 -17 -67 -26.5t-71.5 -10t-57.5 20.5q-21 19 -21 57v7q17 348 17 695q0 277 -11 552 q-2 28 -9.5 34.5t-39.5 0.5l-385 -72q-28 -5 -35 32z" />
<glyph unicode="X" horiz-adv-x="841" d="M2 -104q231 394 369 641q-49 231 -103 694q-2 19 -2 37q0 40 8 74q11 50 33 80.5t51 50.5q30 21 62 21h3q31 0 62 -11q18 -320 50 -652q249 456 344 678q18 43 51 59q20 10 40 11q12 -1 24 -5q32 -10 50 -40l-487 -893q76 -569 191 -569q37 0 73.5 36t75.5 132 q23 18 51 8t21 -37q-29 -99 -102.5 -168.5t-159.5 -69.5q-98 0 -170.5 101t-126.5 297l-256 -471q-18 -30 -56 -42q-20 -6 -37 -6t-31 5q-30 11 -28 39z" />
<glyph unicode="Y" horiz-adv-x="950" d="M-72 -20q4 47 35.5 95t77.5 48q25 0 75 -34.5t98.5 -76t104.5 -76t91 -34.5q60 0 120.5 118t105 292t75.5 355t43 326q-47 -111 -101.5 -196t-100 -131t-91 -75t-73 -37.5t-48.5 -8.5q-36 0 -59.5 23t-36.5 81q-12 49 -12 123v28q3 93 24.5 238.5t62.5 337.5q4 16 4 29 q0 19 -9 33q-13 24 -56 14l-283 -66q-36 -5 -43 33q-1 7 -1 13q0 33 25 62q8 10 19 17q5 0 172 20q159 19 215 19h5q93 -3 131 -39q28 -26 28 -68q0 -17 -4 -36q-75 -329 -98 -509q-10 -74 -10 -119q0 -64 20 -68q64 0 146.5 131.5t207.5 447.5q10 26 50 39q20 7 42 7t46 -6 q49 -13 80 -54q-38 -305 -107 -578t-151.5 -466t-176.5 -305.5t-182 -112.5q-84 0 -227 53t-234 113z" />
<glyph unicode="Z" horiz-adv-x="948" d="M41 190q1 56 55 121q44 52 83 52q10 0 20 -3q80 -27 241 -161q60 88 127 225q-92 3 -143 10q-32 4 -47.5 21.5t-14.5 41.5t9 47t20 42q171 -25 234 -31q79 202 130 416.5t54 359.5q-182 -33 -372 -33q-77 0 -154 5q-41 3 -50 43q-3 13 -3 26q0 28 12 58q18 46 49 69 q184 -35 399 -34q131 0 273 12q39 3 56 -18t11 -60q-21 -146 -102 -386t-191 -466q43 -2 129 -2q48 1 52 -31v-8q0 -28 -25 -62q-100 -20 -219 -20q-88 -162 -172 -274q39 -31 69.5 -52.5t67.5 -44t68 -31.5q31 -8 65 -12q7 -1 14 -1q26 1 50 11q30 14 59 39t55.5 71 t50.5 110q21 18 55 8q26 -7 26 -25q0 -6 -3 -12q-43 -102 -92.5 -171.5t-95.5 -106.5t-103 -47q-41 -8 -76 -8q-13 0 -25 1q-44 4 -105 29.5t-100 47.5t-99 60q-102 -86 -186 -86q-51 0 -88 44.5t-52.5 101.5t-15.5 114zM121 143q-1 -38 34.5 -72t67.5 -34q44 0 86 26 q-128 80 -188 80z" />
<glyph unicode="[" horiz-adv-x="624" d="M72 -375l256 2202l575 -6q24 -47 14.5 -78.5t-37 -47.5t-63.5 -16l-297 4l-250 -1919l394 -4q23 -46 14.5 -77.5t-35.5 -47.5t-65 -16z" />
<glyph unicode="\" horiz-adv-x="776" d="M57 1538q-11 47 23 71.5t96 2.5l412 -1665q7 -29 -14.5 -52.5t-56 -29.5t-73.5 8z" />
<glyph unicode="]" horiz-adv-x="638" d="M-135.5 -288.5q9.5 31.5 37 47.5t63.5 16l297 -4l250 1919l-393 4q-23 46 -14.5 77.5t35.5 47.5t65 16l506 -6l-256 -2202l-576 6q-24 47 -14.5 78.5z" />
<glyph unicode="^" horiz-adv-x="819" d="M66 893l346 625h98l182 -584q12 -41 -8.5 -67.5t-79.5 -16.5l-170 453l-250 -422q-24 -38 -65.5 -31.5t-52.5 43.5z" />
<glyph unicode="_" horiz-adv-x="1062" d="M22 -185q14 42 56 42h952q28 -35 12.5 -83t-59.5 -48h-944q-31 47 -17 89z" />
<glyph unicode="`" horiz-adv-x="509" d="M80 1112q9 36 23.5 60t30 34t31.5 13t28 -2t18 -13q105 -127 213 -235q-1 -32 -18.5 -45t-38.5 -4q-69 30 -149.5 82t-137.5 110z" />
<glyph unicode="a" d="M33 303q0 92 25 183t71.5 168t123 125t169.5 48q35 0 68 -11.5t61 -33.5q29 -20 41 -58q7 -21 6 -45q0 -19 -4 -40q24 -15 25 -56q0 -30 -13 -73q-56 -195 -56 -316.5t66 -121.5q37 0 74 36t76 132q23 18 51 8q22 -8 22 -27q0 -5 -1 -10q-29 -99 -103 -169t-162 -71 q-113 0 -147 131q-43 -73 -86.5 -101t-97.5 -28q-71 0 -119 46t-69 118t-21 166zM213 260q0 -84 17.5 -137t48.5 -53q23 0 45 22t43 69t38 133.5t27 203.5q-23 6 -31.5 18t-7.5 37q25 25 39 67q8 24 8 45q0 17 -4 31q-10 34 -49 33q-53 0 -94.5 -78t-60.5 -183t-19 -208z " />
<glyph unicode="b" horiz-adv-x="602" d="M61 182q-20 103 -20 234q0 134 21 298q41 323 145 683q62 44 131 49h13q57 0 58 -42l-3 -24q-77 -272 -125 -501t-63 -374q-12 -121 -13 -212q0 -18 1 -35q3 -102 19.5 -145t40.5 -43q82 0 110 185q12 79 13 179q0 133 -22 301q-1 8 -1 16q0 35 24 61q30 34 83 42 q43 -71 90 -101q41 -26 83 -27q4 0 10 1q46 4 106 35q8 4 16 -3q10 -9 10 -21q0 -35 -80 -70q-67 -29 -121 -29q-13 0 -26 2v-16q1 -93 -21 -199q-24 -116 -65.5 -217t-107.5 -168.5t-140 -67.5q-126 0 -166 209z" />
<glyph unicode="c" horiz-adv-x="567" d="M53 287q0 153 48.5 286.5t131.5 213t179 79.5q95 0 126 -106q12 -43 12 -91q0 -64 -21 -136q-36 -120 -103 -161q-26 -16 -53 -16q-50 0 -47 31q0 1 13.5 44.5t30 102t30 118t13.5 100.5t-20 41q-45 0 -84.5 -75t-61.5 -182.5t-22 -209.5q0 -101 23.5 -170.5t61.5 -98.5 q37 -29 82 -28l2 -1q46 0 90.5 30t85 88.5t63.5 134.5q29 19 55 9q22 -9 22 -27q0 -3 -1 -7q-17 -73 -55 -135t-87 -103t-106.5 -64.5t-114.5 -26.5h-14q-49 0 -96 18q-53 21 -93.5 63t-65 114t-24.5 165z" />
<glyph unicode="d" horiz-adv-x="731" d="M41 350q0 118 35 229t100 184t143 73q90 0 166 -50q16 201 62 611q57 42 95 59q25 11 43 11q9 -1 15 -3q20 -8 28.5 -32t8.5 -68q0 -252 -37.5 -507.5t-105.5 -457.5v-39q0 -288 43 -288q37 0 73.5 36t75.5 132q23 18 51 8q22 -8 22 -27q0 -5 -1 -10 q-29 -99 -102.5 -168.5t-161.5 -69.5q-89 0 -117 170q-107 -167 -235 -170q-58 0 -104.5 51.5t-71.5 137.5t-25 188zM228 308q-1 -16 0 -31q0 -75 14 -131q18 -66 51 -66q112 0 172 389q2 62 14 238q-49 18 -98 18q-45 0 -81.5 -66.5t-52 -161t-19.5 -189.5z" />
<glyph unicode="e" horiz-adv-x="567" d="M51 301q0 133 24.5 237.5t61 164t82.5 98.5t84 52t72 13q86 0 128 -52t42 -136q0 -154 -85 -293.5t-212 -241.5q20 -69 58.5 -105t88.5 -36q68 0 132.5 78t105.5 201q26 14 43.5 11.5t25.5 -13.5q7 -9 7 -18q1 -55 -63 -153q-50 -77 -130.5 -133.5t-161.5 -56.5 q-128 0 -215.5 100t-87.5 283zM229 291q0 -39 2 -55q73 86 118.5 204t45.5 258q0 66 -33 66q-12 0 -28 -16.5t-34.5 -54t-34 -90t-26 -134.5t-10.5 -178z" />
<glyph unicode="f" horiz-adv-x="354" d="M-35 -653q11 379 49 790q-14 28 -28 70q-1 9 -1 17q0 55 46 95q56 531 153 1078q36 41 89 54q17 4 33 4q32 0 56 -18q25 -19 25 -57q0 -14 -4 -32q-131 -599 -205 -1205q40 -62 85 -62q19 0 39 11q67 38 116 189q28 18 56 9q21 -6 21 -24q0 -5 -1 -10 q-38 -134 -102 -201.5t-138 -72.5q58 -178 58 -313q0 -20 -1 -39q-10 -149 -83.5 -232.5t-192.5 -83.5q-39 0 -70 33zM94 -604q33 3 60.5 38.5t41.5 94.5q8 32 8 75q0 34 -6 76q-11 91 -53 193z" />
<glyph unicode="g" horiz-adv-x="677" d="M-143 -471q0 34 25 61q21 24 56 24q5 0 11 -1q36 -64 88.5 -108t109.5 -44q53 0 92 35t67 111t47 182.5t34 263.5q-68 -80 -145 -80q-100 0 -154.5 88.5t-54.5 241.5q0 92 25 183t71.5 168t123 125t169.5 48q60 0 102 -45q20 6 35 4.5t29 -13t20.5 -37.5t9.5 -70 q1 -13 1 -27q0 -35 -5 -80q-14 -149 -25 -248t-32 -233.5t-45 -223.5t-63 -186t-87 -153.5t-115 -93.5t-149 -37q-81 0 -161 44t-80 101zM212 235q8 -165 67 -165q22 0 43.5 25t42.5 74.5t39 136t28 198.5q-4 60 -4 101q0 76 14 89q-1 2 -4.5 7t-5 7t-5 6t-5.5 5.5t-6 4 t-8 3t-9.5 1.5t-11.5 1q-81 0 -131 -165q-44 -143 -44 -286v-43z" />
<glyph unicode="h" horiz-adv-x="718" d="M20 63q0 193 134 1332q66 47 133 51h11q58 0 59 -49q0 -8 -1 -17l-172 -1120q197 523 333 568q14 5 27 5q59 0 111 -90q-41 -133 -64 -247t-26 -190q-1 -22 -1 -42q0 -50 6 -88q8 -54 22.5 -79t32.5 -25q37 0 73.5 36t75.5 132q23 18 51 8q22 -8 22 -27q0 -5 -1 -10 q-29 -99 -102.5 -168.5t-161.5 -69.5q-66 0 -108 50q-42 49 -57 137q-13 73 -13 161q0 17 1 35q3 108 23 236q-59 -82 -129 -248.5t-121 -345.5q-57 -24 -91 -24h-7q-35 3 -47.5 23t-12.5 66z" />
<glyph unicode="i" horiz-adv-x="368" d="M60 288q-1 15 -1 30q0 73 12 169q14 117 46 256q45 19 79.5 27t54 5.5t32 -11.5t13.5 -23t-1 -30q-26 -112 -44 -199t-28.5 -159.5t-12.5 -123.5q-1 -15 -1 -29q0 -34 4 -58q6 -36 21 -52t40 -16q38 0 74.5 35.5t75.5 130.5q23 18 51 8q22 -8 22 -27q0 -5 -1 -10 q-29 -98 -103 -167.5t-162 -70.5q-34 0 -62.5 17.5t-53.5 54t-38.5 99t-16.5 144.5zM137 1010q0 46 33.5 79t77.5 33q125 0 125 -114q0 -37 -25 -63q-24 -27 -58 -33q-18 -3 -36 -3l-34 3q-34 6 -58.5 32.5t-24.5 65.5z" />
<glyph unicode="j" horiz-adv-x="460" d="M-414 -467q0 34 29.5 59t60.5 25q26 -55 85.5 -104.5t125.5 -49.5q48 0 86.5 40t74 133.5t65 258t53.5 404.5q-43 -144 -97 -163q-27 -10 -40 18q-4 9 -4 20q96 205 127 528q25 26 54.5 42t55.5 19t48.5 -1t35.5 -15t14 -26l-12 -229q-20 -336 -82 -582.5t-169.5 -386 t-250.5 -139.5q-100 0 -180 43t-80 106zM137 1010q0 46 33.5 79t77.5 33q125 0 125 -114q0 -37 -24.5 -63t-58.5 -33q-18 -3 -36 -3l-34 3q-34 6 -58.5 32.5t-24.5 65.5z" />
<glyph unicode="k" horiz-adv-x="722" d="M25 6l141 1389q42 29 112 40q19 3 35 3q59 0 61 -42l-1 -16l-150 -989q10 27 37 87.5t74 155t101.5 161.5t96.5 67q103 0 129 -104q9 -34 9 -71q0 -76 -36 -166q-52 -134 -153 -218q30 -98 71.5 -159.5t88.5 -61.5q69 0 131 158q23 18 52 8q22 -8 22 -26q0 -5 -2 -11 q-38 -116 -105.5 -177t-144.5 -61q-78 0 -148 63t-114 177q-12 32 -11.5 50t15.5 28q114 83 154 201q18 53 18 99q0 56 -27 103q-72 -96 -136 -217.5t-98 -211t-61.5 -167t-33.5 -88.5q-15 -36 -54 -37h-2q-38 0 -71 33z" />
<glyph unicode="l" horiz-adv-x="395" d="M32 372v5q0 123 24 295q24 175 62.5 370t96.5 443q20 20 47 20q12 0 25 -4q91 -27 132 -137q32 -86 32 -195q-1 -31 -3 -63q-12 -148 -75.5 -322t-169.5 -319q-1 -34 -2 -65q0 -136 22 -222q26 -106 76 -106q37 0 74 36t76 132q33 17 57 8q16 -6 17 -22q0 -7 -3 -15 q-40 -101 -109.5 -169.5t-154.5 -68.5q-78 0 -128.5 45t-73 137t-22.5 217zM215 637q117 239 117 425q0 54 -10 103q-83 -290 -107 -528z" />
<glyph unicode="m" horiz-adv-x="1036" d="M41 63q9 192 31.5 416t42.5 322q76 40 122 40q21 0 36 -8q20 -11 20 -38q0 -9 -2 -19q-45 -226 -88 -604q163 516 262 658q53 77 106 77q23 0 47 -15q22 -14 46 -42q-48 -148 -74 -332q-25 -171 -25 -298v-19q29 68 65 159t56 140.5t47.5 106.5t54.5 100q45 70 95 70 q53 0 112 -77q-67 -212 -92 -358q-17 -98 -17 -158q0 -30 4 -50q12 -62 52 -62q37 0 74 36t76 132q22 18 50 8q22 -8 22 -27q0 -5 -1 -10q-29 -99 -102.5 -168.5t-159.5 -69.5q-65 0 -109 65q-46 66 -56 172q-3 34 -3 71q0 78 15 168l-195 -457q-31 -10 -56 -10 q-61 0 -85 59q-17 43 -17 130q0 130 38 357q9 53 20 113q-52 -116 -101 -254.5t-129 -382.5q-64 -27 -103 -27q-3 1 -7 1q-41 2 -57 24q-15 19 -15 53v8z" />
<glyph unicode="n" d="M14 45q3 249 70 746l74 32q31 13 55 13q17 0 31 -6q29 -13 29 -43q0 -5 -1 -11q-8 -47 -55 -269t-61 -339q84 221 144.5 358.5t135.5 280.5q16 30 46 41q12 4 26 4q20 0 44 -9q40 -16 77 -61q-34 -159 -52 -286q-19 -126 -21 -204q-1 -18 0 -36q0 -54 6 -93q8 -51 22 -71 t32 -20q37 0 74 36t76 132q23 18 51 8q22 -8 22 -27q0 -5 -1 -10q-29 -99 -103 -168.5t-162 -69.5q-78 0 -125 78q-46 79 -54 213q-2 31 -1 64q0 112 19 252q-117 -250 -248 -588q-48 -15 -80 -15q-21 1 -35 7q-35 16 -35 61z" />
<glyph unicode="o" horiz-adv-x="677" d="M35 311q0 95 16 172.5t40.5 126t56.5 81t62 45.5t58 12q26 49 64.5 75.5t81.5 26.5q92 0 155.5 -73t63.5 -212q0 -77 -19 -182q69 14 131 61q22 -9 22 -29q0 -7 -3 -16q-13 -46 -83 -75q-39 -16 -89 -23q-35 -104 -95.5 -182t-118.5 -113t-106 -35q-26 0 -53 6.5 t-61.5 28t-60.5 57t-44 100t-18 148.5zM214 293q10 -100 41 -165t69 -65q47 0 82 66.5t55 171.5q-99 14 -160 74t-74 137q-16 -84 -16 -159q0 -31 3 -60zM344 618v-17q0 -75 32 -127q36 -58 99 -83q12 89 12 166q0 145 -49 189q-14 13 -28 13q-17 0 -33 -18 q-33 -38 -33 -123z" />
<glyph unicode="p" horiz-adv-x="751" d="M-29 -565q1 37 73 708t73 682q21 15 53 30t70 25q12 3 23 3q22 0 37 -14q16 -14 16 -46q0 -12 -3 -28l-88 -551q47 133 83 222.5t73.5 165.5t69 115t66.5 57q22 12 44 12q13 0 27 -4q36 -12 78 -50q-40 -130 -65 -236.5t-35 -176.5t-10 -123t7.5 -81.5t21 -45.5t26 -22 t26.5 -5q18 0 37 7t42 24.5t47 52.5t44 84q23 18 51 8q22 -8 22 -27q0 -5 -1 -10q-28 -96 -111.5 -167t-173.5 -71q-42 0 -72.5 9.5t-61 45t-43.5 96.5q-10 48 -10 127q0 21 1 45q3 111 30 263q-16 -32 -50.5 -101.5t-47.5 -97.5t-41 -88.5t-40 -92.5t-33.5 -91 t-31.5 -102.5t-25 -109t-23 -128t-16.5 -141t-14.5 -166.5q-71 -41 -109 -41q-12 0 -21 4q-16 8 -14 31z" />
<glyph unicode="q" d="M33 301q0 221 114 372.5t275 151.5q79 0 132 -34t69 -89q-51 -263 -117 -806q8 9 56.5 64t64.5 75.5t50 65t54 82t35 77.5q12 9 31.5 11t32.5 -8q10 -7 10 -20q0 -5 -2 -12q-15 -60 -64.5 -134.5t-105 -144.5t-107 -147.5t-78.5 -169.5q-17 -59 -17 -118q0 -33 5 -66 q5 -32 -20 -47q-21 -12 -50 -12q-6 0 -12 1q-37 3 -72 19q2 45 5 91t5.5 82.5t7 85.5t7.5 76t9 79t8 71t9 75t9 69q-63 -70 -135 -70q-57 0 -99 27t-65 74.5t-34 104t-11 124.5zM213 242q0 -79 18.5 -126.5t47.5 -47.5q30 0 54.5 23.5t40.5 68.5t27.5 91.5t19 113.5 t11.5 112.5t8 109.5t6 85q-30 51 -69 51q-40 0 -73 -49.5t-52 -125t-29 -155.5t-10 -151z" />
<glyph unicode="r" horiz-adv-x="591" d="M14 725q0 33 11 72t33 75q24 36 58 48q13 5 28 5q24 0 53 -12q16 -159 20 -229h21q64 0 128 10q74 12 105 33q47 -3 47 -41q0 -12 -4 -27q-35 -121 -54 -222t-22 -167q-1 -19 -1 -36q-1 -43 5 -76q8 -46 22.5 -66t33.5 -20q37 0 73.5 36t75.5 132q23 18 51 8 q22 -8 22 -27q0 -5 -1 -10q-29 -99 -102.5 -168.5t-161.5 -69.5q-26 0 -50.5 11t-50 35t-43 68t-27.5 104q-7 43 -7 101q0 24 1 50q4 90 23 199q-62 -4 -88 -4q-13 -196 -100 -369q-21 -36 -49 -32t-39 36q69 144 86 381q-97 32 -97 172z" />
<glyph unicode="s" horiz-adv-x="512" d="M23 170q38 75 72.5 215.5t35.5 269.5v4q-8 31 -8 70q0 91 56.5 143t152.5 52q50 -57 50 -108q0 -53 -56 -107q0 -38 24 -100.5t53.5 -121t53.5 -136.5t24 -144q0 -76 -29 -141.5t-74.5 -106t-99.5 -63.5t-106 -23q-61 0 -94 26.5t-33 53.5q0 35 18.5 56t51.5 24 q14 -28 45 -49t63 -21q49 0 81 34.5t32 115.5q0 51 -9.5 98.5t-34 101.5t-37 78t-46.5 86q-14 -86 -40.5 -172.5t-55.5 -136.5q-21 -34 -48.5 -32.5t-41.5 34.5z" />
<glyph unicode="t" horiz-adv-x="434" d="M-50 980q2 24 13 46h162l45 289q74 48 142 51h5q55 0 55 -41v-6q0 -9 -3 -19q-5 -23 -25 -121.5t-29 -150.5l138 2q63 0 77 -20q5 -7 4 -17q0 -18 -16 -45l-219 -8q-36 -202 -57.5 -359.5t-29.5 -287.5q-3 -45 -3 -83q0 -71 10 -117q15 -70 53 -70q43 0 82 27.5t69 74.5 t50 88.5t37 87.5q24 16 52 9q24 -6 25 -27q0 -3 -1 -7q-6 -44 -36.5 -101.5t-74.5 -109.5t-103.5 -88t-115.5 -36q-46 0 -81.5 15t-59.5 48t-39 77q-16 43 -22 109q-5 60 -5 127q1 6 1 12q0 73 8.5 171t21 199t31.5 231l-111 -8q-28 -2 -40 16q-11 16 -10 36v6z" />
<glyph unicode="u" horiz-adv-x="716" d="M44 227q-4 42 -4 88q0 81 12 175q20 147 67 309q56 14 93 18q23 2 38 2q10 -1 17 -1q18 -2 24 -14.5t4.5 -24t-8.5 -31.5q-33 -106 -53.5 -206.5t-25.5 -177.5q-2 -37 -2 -69q0 -35 2 -67q6 -60 23 -91t41 -31q17 0 34 18.5t35.5 62t35 108.5t32.5 165t27 224 q79 59 147 59q52 0 54 -38q0 -8 -2 -17q-40 -165 -56 -307q-9 -83 -9 -145q0 -44 4 -80q12 -84 49 -84t73.5 36t75.5 132q23 18 51 8q22 -8 22 -27q0 -5 -1 -10q-29 -101 -98 -169.5t-156 -68.5q-75 0 -117.5 62t-50.5 166q-64 -228 -180 -228q-86 0 -136.5 69t-61.5 185z " />
<glyph unicode="v" horiz-adv-x="657" d="M50 336q2 54 6 98t11.5 101t13.5 96.5t14 91.5q8 48 11 70q69 47 136 51h9q55 0 55 -44q0 -12 -3 -22q-47 -188 -65 -357q-11 -101 -12 -176q0 -51 6 -89q12 -96 49 -97q91 1 141 161q35 110 34 264q0 70 -7 149q-43 26 -57 71q-7 22 -6.5 44t6.5 43q14 43 49 73 q34 30 76 29h3q40 -95 94 -133q42 -30 93 -29q52 0 114 31q20 10 29 -21q1 -23 -37.5 -55t-100.5 -56q-55 -21 -103 -20h-13q1 -18 0 -36q0 -148 -36 -276q-42 -144 -126.5 -234.5t-193.5 -90.5q-39 0 -69.5 13t-51 38t-35.5 56t-22 75q-6 43 -10 85q-2 24 -3 53q0 21 1 43z " />
<glyph unicode="w" horiz-adv-x="1036" d="M40 396q3 114 19.5 215t40.5 182q61 44 132 50q8 1 16 1q55 0 57 -40q0 -12 -4 -26q-59 -216 -77 -382q-8 -80 -7 -141q0 -65 9 -107q19 -82 65 -82q39 0 82.5 79t64.5 203q1 45 3 84.5t6.5 81.5t7 63.5t9.5 73t9 68.5q28 21 57 33t59 12t47 -23t21 -73q1 -8 1 -17 q0 -47 -19 -121q-33 -123 -37 -233q-1 -21 0 -40q0 -82 16 -133q20 -63 56 -63q88 0 132 144q39 127 39 357q0 31 -1 65q-44 19 -62 64q-11 29 -11 58q-1 16 3 31q10 44 45.5 78.5t85.5 34.5q43 -114 122 -149q31 -14 66 -14q53 0 113 32q11 6 20 -2t9 -20q1 -23 -35 -53 q-36 -31 -96 -55q-57 -23 -109 -22h-4q-2 -173 -43 -316t-122.5 -232t-190.5 -89q-129 0 -176 170q-31 -69 -95 -119.5t-112 -50.5q-81 0 -131.5 61.5t-66.5 154.5q-14 79 -14 172v35z" />
<glyph unicode="x" horiz-adv-x="479" d="M-76 12q61 90 131 209q-55 179 -55 447q0 94 26 148.5t70 61.5q8 1 17 1q37 0 84 -23q-17 -177 -17 -313q0 -51 2 -97l168 306q29 10 55 -4.5t32 -42.5q1 -7 1 -14q0 -22 -14 -48q-119 -167 -225 -350q21 -128 64 -193t99 -65q81 0 166 205q23 18 51 8q22 -8 22 -27 q0 -5 -1 -10q-46 -139 -116 -203.5t-140 -64.5q-159 0 -246 174l-88 -150q-9 -16 -28.5 -17t-37 16t-20.5 46z" />
<glyph unicode="y" horiz-adv-x="684" d="M-150 -467q0 39 30.5 62.5t56.5 23.5q25 -34 39 -50.5t44 -46t62.5 -43.5t67.5 -14q44 0 82.5 36t75 118t68 228.5t56.5 353.5q-20 -80 -55 -133.5t-69 -74t-66 -20.5q-115 0 -165 124q-38 93 -38 225q0 43 5 90q16 192 87 407q82 21 127 21h10q45 -3 46.5 -23.5 t-5.5 -48.5q-28 -76 -47.5 -151.5t-30 -139.5t-14.5 -123q-2 -29 -2 -54.5t2 -47.5q4 -45 12.5 -78t22.5 -50.5t31 -17.5q99 0 155 517q80 60 150 60h2q55 -1 57 -43q1 -3 1 -6.5t-1 -6.5l-51 -400q-19 -172 -57.5 -314.5t-87 -239t-107 -163t-117.5 -96.5t-118 -30 q-38 0 -80 8.5t-83.5 25t-68.5 46.5t-27 69z" />
<glyph unicode="z" horiz-adv-x="657" d="M19 100q-4 29 -4 57q-1 98 45 197q58 127 153 127q23 0 33 -10q14 -14 32 -35.5t30.5 -37.5t34 -45.5t32.5 -43.5q79 176 98 367q-77 -17 -152 -17h-22q-86 3 -154 25q-53 16 -59 64q-1 5 0 11q0 44 47 101q131 -47 283 -47q77 0 159 12q5 1 9 1q30 0 30 -38 q0 -97 -52.5 -254.5t-133.5 -293.5q101 -127 156 -127q36 0 71 31t58 96q23 18 51 8q22 -8 21 -27q0 -5 -1 -10q-29 -99 -102.5 -168.5t-161.5 -69.5q-77 0 -188 127q-107 -127 -207 -127q-89 0 -106 127zM133 244q-1 -14 -1 -27q0 -49 11 -97q14 -62 39 -63q14 0 43.5 27 t61.5 72q-15 19 -35.5 45t-33 42.5t-26 32.5t-22.5 23.5t-14 7.5q-19 -1 -23 -63z" />
<glyph unicode="{" horiz-adv-x="690" d="M127.5 749q2.5 35 19.5 44q123 -5 210 46.5t87 147.5q0 29 -20 87t-39.5 127.5t-19.5 127.5q0 81 42 166t110 156t146 128.5t158 96.5q28 16 46 8t19 -30t-9 -48q-75 -44 -136 -95t-106 -118.5t-45 -130.5q0 -34 21.5 -131.5t21.5 -175.5q0 -155 -62 -254t-192 -158 q100 -29 155.5 -84.5t55.5 -164.5q0 -79 -24 -157.5t-52 -130t-52 -106t-24 -90.5q0 -86 72.5 -188t161.5 -160q8 -45 -12.5 -69t-59.5 -1q-65 36 -126.5 87t-114.5 113.5t-85 137.5t-32 148q0 59 23.5 127.5t52 118.5t52 103.5t23.5 86.5q0 83 -65 127t-199 53 q-4 20 -1.5 55z" />
<glyph unicode="|" horiz-adv-x="348" d="M59 -317l246 2109q33 28 69.5 34.5t59.5 -8.5t19 -46l-269 -2118q-63 -43 -97 -32t-28 61z" />
<glyph unicode="}" horiz-adv-x="684" d="M-15.5 -402.5q-16.5 26.5 3.5 66.5q118 69 202 160.5t84 183.5q0 34 -21.5 131.5t-21.5 175.5q0 155 62 254t192 158q-47 14 -82 31.5t-66 46t-47 72t-16 100.5q0 79 24 157.5t52 129.5t52 105.5t24 90.5q0 86 -72.5 188t-160.5 160q-8 45 12 69t59 1q65 -36 126.5 -87 t114.5 -113t85.5 -137t32.5 -148q0 -59 -23.5 -127.5t-52.5 -119t-52.5 -104t-23.5 -86.5q0 -83 65 -127t199 -53q4 -20 1.5 -54.5t-19.5 -43.5q-79 3 -145.5 -17t-109 -66.5t-42.5 -111.5q0 -29 20 -87t40 -127.5t20 -127.5q0 -81 -42 -166t-110 -156t-146.5 -128.5 t-158.5 -96.5q-42 -23 -58.5 3.5z" />
<glyph unicode="~" horiz-adv-x="1087" d="M53 365q25 95 99.5 174t154.5 79q48 0 154 -51.5t208 -103t140 -51.5q48 0 80 41t72 129q16 4 35.5 4.5t31 -15t2.5 -43.5q-41 -118 -117.5 -189t-173.5 -71q-44 0 -122 32t-147.5 70.5t-135 70.5t-88.5 32q-17 0 -32.5 -8t-25.5 -17t-22 -29.5t-17 -30t-16.5 -35.5 t-13.5 -31q-38 -5 -55 6t-11 37z" />
<glyph unicode="&#xa1;" horiz-adv-x="647" d="M90 -524q6 44 51 284.5t87 459.5l42 218q15 37 57 38t70 -34l-57 -983q-38 -26 -121 -38q-112 -16 -128 31q-3 11 -1 24zM244 754q-4 51 31.5 88t84.5 37q56 0 93 -31t41 -84q5 -54 -30.5 -96.5t-86.5 -42.5q-59 0 -94 33t-39 96z" />
<glyph unicode="&#xa2;" horiz-adv-x="632" d="M25 895q0 203 90 361t241 204l39 332q51 42 92 35t35 -55l-39 -297q142 -6 186 -110q34 -80 -2 -172q-30 -79 -88 -103q-18 -7 -36 -7q-25 0 -38 8.5t-11 22.5l8 30q8 29 15 67t9.5 79t-10.5 72t-43 39l-98 -766q58 -3 115.5 34t99.5 107q45 12 66 -6t1 -49 q-52 -80 -130.5 -128t-164.5 -56l-36 -283q-63 -42 -87 -32t-18 61l29 260q-100 25 -162.5 114t-62.5 238zM195 934q0 -170 71 -248l78 672q-69 -60 -109 -181.5t-40 -242.5z" />
<glyph unicode="&#xa3;" horiz-adv-x="866" d="M-72 74q0 58 53.5 116t124.5 92.5t127 34.5q25 0 60 -14q5 135 -27 258l-149 -4q-43 0 -60 25t-11.5 55.5t22.5 58.5l163 -2q-18 99 -18 205t29.5 200t78.5 162.5t112.5 118t133 74.5t138.5 25q66 0 113.5 -22.5t73.5 -62.5t38 -86.5t12 -101.5q0 -79 -30.5 -154.5 t-81 -122t-103.5 -46.5q-24 0 -43 9.5t-18 29.5q1 4 24.5 54.5t45.5 122t22 136.5q0 67 -21.5 103t-81.5 36q-88 0 -167.5 -114t-79.5 -271q0 -28 1.5 -56.5t5 -61.5t6.5 -54.5t9 -63.5t8 -59h269q36 -1 37.5 -40.5t-21.5 -80.5l-270 -8q8 -65 8 -157q0 -89 -47 -175 q14 -10 49.5 -34t52.5 -34.5t43 -26t44.5 -21.5t33.5 -6q53 0 90 34.5t66 112.5q35 14 56 -1t9 -52q-36 -114 -118 -176t-185 -62q-34 0 -80.5 20t-81 41t-88.5 58q-62 -61 -131.5 -97t-122.5 -36q-66 0 -94.5 30t-28.5 91zM47 125q0 -34 18 -54t50 -20q33 0 68 19.5 t61 58.5q-73 49 -109 49q-88 0 -88 -53z" />
<glyph unicode="&#xa5;" horiz-adv-x="790" d="M-24.5 646q5.5 31 22.5 59l315 -3q-99 370 -200 658q42 74 103 105.5t89 -31.5l174 -664l355 690q79 13 111.5 -11.5t-3.5 -88.5l-356 -658h301q36 -1 37.5 -40t-21.5 -80l-373 -9l-69 -557q-43 -17 -81 -21.5t-64 9.5t-23 49q10 147 49 518l-295 -6q-43 0 -60 25 t-11.5 56z" />
<glyph unicode="&#xa6;" horiz-adv-x="348" d="M59 -317l86 735q52 42 96 35.5t38 -54.5l-95 -745q-63 -43 -97 -32t-28 61zM219 1057l86 735q33 28 69.5 34.5t59.5 -8.5t19 -46l-95 -744q-63 -43 -104 -32t-35 61z" />
<glyph unicode="&#xa7;" horiz-adv-x="858" d="M68 -217q30 97 100 139q36 21 74 21q28 0 49 -12t16 -37q-2 -6 -11 -26.5t-16.5 -39t-17 -45.5t-14 -50t-7.5 -49t3 -46t17.5 -37t35 -26t57.5 -9q89 0 144 72.5t55 166.5q0 72 -25 128.5t-64.5 94t-87.5 70t-95.5 65t-87 69.5t-64.5 93.5t-25 127.5q0 112 61.5 214 t153.5 164q-98 108 -98 254q0 163 125 275.5t311 112.5q171 0 231 -116q45 -88 11 -198q-30 -96 -100 -139q-36 -21 -74 -21q-28 0 -49.5 12.5t-16.5 37.5q2 6 11 26.5t16.5 38.5t17 45.5t14 50.5t7.5 49t-3 45.5t-17.5 36.5t-35 26t-57.5 9q-89 0 -143.5 -72.5 t-54.5 -166.5q0 -57 15.5 -104t41.5 -80.5t59.5 -62.5t70.5 -53.5l74 -49t70.5 -53t59.5 -62t41.5 -80.5t15.5 -103q0 -112 -62 -214.5t-153 -165.5q98 -105 98 -252q0 -162 -125 -274.5t-311 -112.5q-170 0 -230 115q-46 88 -11 198zM276 524q0 -51 18 -93.5t54 -78 t70.5 -62t86.5 -63t83 -63.5q42 45 71.5 113t30.5 141q0 50 -18 92.5t-54 78t-70 62t-87 63t-84 62.5q-41 -45 -71 -113t-30 -139z" />
<glyph unicode="&#xa8;" horiz-adv-x="745" d="M102 1049q0 57 31 81.5t74 24.5q38 0 67 -25t29 -65q0 -48 -27.5 -77.5t-74.5 -29.5q-45 0 -72 25.5t-27 65.5zM428 1040q0 59 33 90t76 31t74.5 -27t31.5 -71q0 -43 -35.5 -75t-81.5 -32t-72 22t-26 62z" />
<glyph unicode="&#xa9;" horiz-adv-x="1554" d="M88 643q0 134 33.5 264.5t102.5 247.5t166 205.5t234 141t296 52.5q146 0 264.5 -37t200 -101t137 -153t81 -191.5t25.5 -217.5t-27 -231t-77.5 -223t-126.5 -200.5t-169 -162.5t-210.5 -108.5t-245.5 -39.5q-171 0 -304.5 62t-215 168.5t-123 239.5t-41.5 284zM272 633 q0 -105 18.5 -199t59.5 -176t100 -141.5t144.5 -94t189.5 -34.5q119 0 226 51t186.5 137.5t138.5 198t89 236.5t30 249t-31.5 229.5t-95 188.5t-168.5 130.5t-241 47.5q-123 0 -229.5 -48t-181.5 -128.5t-129 -186.5t-80 -223.5t-26 -236.5zM547 616q0 152 54 286.5 t141.5 214t183.5 79.5q66 0 104 -52.5t40 -127.5t-14 -150t-57.5 -127.5t-91.5 -52.5q-47 0 -47 31q0 14 12.5 62.5t27 104.5t25.5 111t7.5 91t-25.5 36q-45 0 -89.5 -74.5t-71.5 -183.5t-27 -209q0 -140 42.5 -219.5t104.5 -79.5q35 0 83 57t73 136q27 19 54.5 8.5 t21.5 -33.5q-32 -119 -116.5 -193.5t-162.5 -74.5q-114 0 -193 92t-79 268z" />
<glyph unicode="&#xaa;" horiz-adv-x="538" d="M100 1065q0 97 38.5 190.5t112.5 157.5t163 64q55 0 94 -35.5t27 -100.5q29 -17 8 -92q-25 -86 -33 -153.5t0 -103.5t31 -36t39 21.5t26 79.5q17 13 46 5.5t26 -26.5q-11 -78 -53.5 -125t-112.5 -47q-42 0 -69 21t-40 73q-55 -92 -151 -92q-73 0 -112.5 51t-39.5 148z M242 1055q0 -101 57 -101q13 0 26.5 14t27.5 45t26 89.5t18 138.5q-29 9 -26 39q18 19 28.5 43.5t4.5 43.5t-33 19q-39 0 -69.5 -54.5t-45 -129t-14.5 -147.5z" />
<glyph unicode="&#xab;" horiz-adv-x="1032" d="M98 534.5q6 26.5 29 38.5l412 312q29 -3 45.5 -22t15 -39.5t-13.5 -35.5l-269 -264l220 -286q-9 -37 -35.5 -54.5t-48.5 -3.5l-342 293q-19 35 -13 61.5zM473 479q-21 62 25 86l417 301q37 -9 50 -45.5t-9 -54.5l-292 -256l243 -270q-7 -37 -41 -56.5t-55 -3.5z" />
<glyph unicode="&#xac;" horiz-adv-x="1114" d="M143 481q-24 156 84 156l695 -2q62 0 53 -68l-53 -424q-5 -32 -56.5 -33.5t-79.5 35.5l35 332z" />
<glyph unicode="&#xad;" horiz-adv-x="501" d="M33.5 436.5q2.5 22.5 9.5 38.5l377 -2q37 -1 47.5 -40.5t-10.5 -80.5l-346 -16q-32 0 -51.5 16t-24 39t-2 45.5z" />
<glyph unicode="&#xae;" horiz-adv-x="587" d="M123 1223q0 62 21 120.5t60 106t101.5 76t138.5 28.5q135 0 204 -72.5t69 -181.5q0 -87 -39 -166.5t-116.5 -132.5t-174.5 -53q-129 0 -196.5 79.5t-67.5 195.5zM217 1223q0 -92 44.5 -152.5t131.5 -60.5q102 0 168 89t66 199q0 84 -47 138.5t-140 54.5 q-69 0 -121.5 -40.5t-77 -100.5t-24.5 -127zM292 1376.5q0 20.5 9 26.5q100 14 155 8t73 -19.5t18 -39.5q0 -71 -92 -119q26 -96 47 -96q10 0 16 20q15 2 23.5 0t11 -6.5t0.5 -9.5q-16 -49 -64 -49q-70 0 -102 110l-12 -108q-29 -8 -52.5 -6t-23.5 12q26 184 33 260 q-5 0 -16 -2t-15 -2q-9 0 -9 20.5zM389 1239q70 33 70 104q0 31 -51 25q-16 -100 -19 -129z" />
<glyph unicode="&#xaf;" horiz-adv-x="755" d="M133 1108q80 0 229.5 4t229.5 4q38 -1 48 -31t-11 -71q-68 -3 -213.5 -12.5t-237.5 -12.5q-101 -3 -45 119z" />
<glyph unicode="&#xb0;" horiz-adv-x="589" d="M152 1120q0 87 37 167.5t114 136t176 55.5q118 0 178 -63.5t60 -162.5q0 -87 -42 -172.5t-121.5 -143.5t-174.5 -58q-112 0 -169.5 68.5t-57.5 172.5zM313 1223q0 -90 42.5 -156t103.5 -66q47 0 77.5 52.5t30.5 134.5q0 79 -27.5 129.5t-82.5 50.5q-58 0 -101 -40 t-43 -105z" />
<glyph unicode="&#xb1;" horiz-adv-x="1114" d="M81 92q9 41 56 41l805 -8q30 -69 1 -106t-87 -35l-758 10q-26 57 -17 98zM143 563q-24 156 84 156l265 -2l34 323q2 15 18 27.5t39 19t52.5 1.5t54.5 -23l-47 -348h340q12 -31 13.5 -67t-17 -66.5t-51.5 -30.5l-307 4l-46 -332q-5 -32 -56 -33.5t-79 35.5l35 332z" />
<glyph unicode="&#xb2;" horiz-adv-x="671" d="M152.5 812.5q1.5 46.5 31.5 96.5q25 9 62 6q31 40 76.5 97.5t66 84t48 64.5t39 60.5t20 49t8.5 50.5q0 30 -23.5 43.5t-52.5 13.5q-23 0 -34.5 -13.5t-16.5 -55t-2 -121.5q-43 -20 -103 -17t-63 31q-12 127 64.5 202t209.5 75q95 0 150 -49t55 -119q0 -15 -3 -29.5 t-6.5 -27.5t-13.5 -30t-18 -29.5t-26 -34.5t-31 -37t-40.5 -44.5t-46.5 -49.5t-56.5 -59t-63.5 -67q21 -4 73.5 -17.5t95 -19.5t81.5 -2q15 2 21 -14.5t3 -41.5t-7 -47t-9 -36q-1 -3 -12 -8q-57 -10 -114 4t-113.5 37.5t-90.5 27.5q-6 -5 -14 -15t-17.5 -23.5t-13.5 -18.5 q-55 -13 -85 12t-28.5 71.5z" />
<glyph unicode="&#xb3;" horiz-adv-x="624" d="M125 858q0 38 29 70t68.5 37t80.5 -27q-28 -68 -18 -101.5t55 -33.5q58 0 98.5 41.5t40.5 103.5q0 53 -37 65.5t-123 -3.5q-18 12 -21.5 46t13.5 52q90 75 126 126t36 105q0 19 -16.5 34.5t-36.5 15.5q-31 0 -41 -33t-12 -117q-47 -17 -83 -20t-53.5 6t-17.5 28 q0 114 68.5 170t193.5 56q84 0 129 -38t45 -95q0 -108 -182 -230q93 12 140.5 -24t47.5 -109q0 -89 -102 -176.5t-221 -87.5q-89 0 -148 33.5t-59 105.5z" />
<glyph unicode="&#xb4;" horiz-adv-x="612" d="M104 961q198 207 277 299q27 24 55.5 21.5t50.5 -31t21 -66.5q-71 -58 -330 -258q-29 -21 -53 -7t-21 42z" />
<glyph unicode="&#xb5;" horiz-adv-x="716" d="M-49 -553q18 262 69.5 698.5t100.5 673.5q53 18 86.5 21t46.5 -6.5t17 -26.5t-3 -39q-134 -662 4 -662q100 0 156 517q79 59 147 59q52 0 54 -38q0 -8 -2 -17q-56 -230 -58 -391t54 -164q37 0 73.5 36t75.5 132q23 18 51 8t21 -37q-29 -101 -98 -169.5t-156 -68.5 q-75 0 -117.5 62t-50.5 166q-17 -60 -42.5 -107.5t-61.5 -81t-78 -34.5t-93 32q-12 -77 -22.5 -175t-22.5 -237.5t-16 -185.5q-70 -23 -103.5 -13t-31.5 48z" />
<glyph unicode="&#xb6;" horiz-adv-x="1298" d="M25 1042q0 103 41 198t114 171t168.5 135t208.5 99l18 147q33 28 69.5 34.5t59.5 -8.5t19 -46l-10 -84q113 25 219 28l10 86q33 28 69.5 34.5t59.5 -8.5t19 -46l-11 -74q285 -37 285 -285q0 -46 -15.5 -86t-40.5 -64t-53.5 -36t-56.5 -5.5t-47 30.5q16 31 25 74.5t7 94 t-32 96t-86 68.5l-100 -788q114 26 198 53q29 9 29 -28q-1 -41 -23 -74q-5 -7 -10 -10q-101 -37 -211 -66l-119 -942q-63 -43 -96.5 -32t-27.5 61l102 882q-105 -20 -229 -24l-123 -973q-63 -43 -97 -32t-28 61l110 952q-203 25 -309 135t-106 272zM244 1094 q0 -240 215 -306l86 748q-140 -70 -220.5 -183.5t-80.5 -258.5zM594 766q103 -3 229 14l97 840q-119 -3 -220 -29z" />
<glyph unicode="&#xb7;" horiz-adv-x="479" d="M178 745q0 57 32.5 98.5t84.5 41.5q60 0 96.5 -37t36.5 -103q0 -47 -35.5 -80.5t-81.5 -33.5q-57 0 -95 30.5t-38 83.5z" />
<glyph unicode="&#xb8;" horiz-adv-x="557" d="M89 -450q-15 32 23 60q14 10 33 17q16 -22 27 -34.5t30.5 -23.5t41.5 -11q33 0 51 19.5t18 51.5q0 30 -19.5 54t-43 36.5t-44.5 30.5t-24 37t19 55q30 43 70 63t65 -3q-19 -29 -15.5 -43t24 -30.5t43 -28.5t40.5 -38t18 -59q0 -85 -68.5 -141t-160.5 -56q-107 0 -128 44z " />
<glyph unicode="&#xb9;" horiz-adv-x="530" d="M123.5 1253q-12.5 28 3.5 39l231 166q53 11 92 11.5t57 -8t17 -23.5l-110 -697q-65 -16 -110 -11t-42 32q8 106 64 547l-170 -90q-20 6 -32.5 34z" />
<glyph unicode="&#xba;" horiz-adv-x="401" d="M111 1102q0 143 81 258t183 115q70 0 109.5 -58t39.5 -160q0 -93 -25 -170.5t-64.5 -124t-83.5 -71.5t-85 -25q-23 0 -45.5 8.5t-49.5 31t-43.5 73t-16.5 123.5zM225 1135q0 -67 19.5 -115.5t62.5 -48.5q45 0 78 69t33 168q0 73 -22 116.5t-64 43.5t-74.5 -67t-32.5 -166 z" />
<glyph unicode="&#xbb;" horiz-adv-x="1032" d="M67 236q-13 37 9 55l293 256l-244 270q7 37 41 56.5t55 3.5l338 -299q21 -62 -24 -86l-418 -302q-37 9 -50 46zM433 232.5q1 20.5 13 35.5l269 264l-219 287q9 37 35.5 54.5t48.5 3.5l342 -293q19 -35 12.5 -62t-29.5 -39l-411 -311q-29 3 -45.5 21.5t-15.5 39z" />
<glyph unicode="&#xbc;" horiz-adv-x="1345" d="M151.5 47.5q-2.5 23.5 14.5 50.5l985 1356q63 10 90 -15t-4 -65l-977 -1372q-47 -5 -76.5 8.5t-32 37zM193 1253q-12 28 4 39l231 166q53 11 92 11.5t57 -8t17 -23.5l-111 -697q-65 -16 -109.5 -11t-41.5 32q9 125 63 547l-170 -90q-20 6 -32 34zM674 213q2 23 10 33 l358 471q58 4 95 -3.5t49 -20t10 -29.5l-66 -416h87q39 0 47 -35.5t-19 -95.5h-129l-24 -129q-65 -16 -113 -11.5t-45 31.5q1 12 2 22t2 17.5t3 26.5t5 43h-235q-22 16 -30.5 44.5t-6.5 51.5zM813 246q43 0 75.5 1t69.5 1q2 19 27 223z" />
<glyph unicode="&#xbd;" horiz-adv-x="1349" d="M151.5 47.5q-2.5 23.5 14.5 50.5l985 1356q63 10 90 -15t-4 -65l-977 -1372q-47 -5 -76.5 8.5t-32 37zM193 1253q-12 28 4 39l231 166q53 11 92 11.5t57 -8t17 -23.5l-111 -697q-65 -16 -109.5 -11t-41.5 32q9 125 63 547l-170 -90q-20 6 -32 34zM738.5 59 q1.5 47 31.5 97q24 9 61 6q32 41 76.5 97t66 83.5t48.5 65t39 60.5t20.5 49t8.5 50q0 30 -23.5 44t-52.5 14q-34 0 -45.5 -37t-7.5 -154q-43 -20 -103 -16.5t-63 31.5q-12 127 64.5 201.5t209.5 74.5q95 0 150 -49t55 -119q0 -17 -2.5 -32t-10.5 -32.5t-14.5 -31 t-24.5 -36.5t-30.5 -38t-42 -46.5t-49 -52t-61.5 -64.5t-70 -74q21 -4 73.5 -17.5t95 -19.5t81.5 -2q15 2 21 -14.5t3 -42t-7 -47.5t-9 -36q-1 -2 -13 -8q-57 -10 -114 4.5t-113 38t-90 27.5q-6 -5 -14 -15t-17 -23.5t-14 -19.5q-55 -13 -85 12t-28.5 72z" />
<glyph unicode="&#xbe;" horiz-adv-x="1390" d="M119 858q0 38 29 70t68.5 37t80.5 -27q-28 -68 -18 -101.5t55 -33.5q58 0 98.5 41.5t40.5 103.5q0 53 -37 65.5t-123 -3.5q-18 12 -21.5 46t13.5 52q90 75 126 126t36 105q0 19 -16.5 34.5t-36.5 15.5q-31 0 -41.5 -33t-12.5 -117q-47 -17 -82.5 -20t-53 6t-17.5 28 q0 114 68.5 170t193.5 56q84 0 129 -38t45 -95q0 -108 -182 -230q93 12 140.5 -24t47.5 -109q0 -89 -102 -176.5t-221 -87.5q-89 0 -148 33.5t-59 105.5zM233.5 47.5q-2.5 23.5 14.5 50.5l985 1356q63 10 90 -15t-4 -65l-977 -1372q-47 -5 -76.5 8.5t-32 37zM756 213 q2 23 10 33l358 471q58 4 95 -3.5t49 -20t10 -29.5l-66 -416h86q39 0 47.5 -35.5t-18.5 -95.5h-129l-24 -129q-65 -16 -113 -11.5t-45 31.5q1 12 2 22t2 17.5t3 26.5t5 43h-235q-22 16 -30.5 44.5t-6.5 51.5zM895 246q43 0 75.5 1t69.5 1q2 19 27 223z" />
<glyph unicode="&#xbf;" horiz-adv-x="731" d="M-68 -287q0 76 20.5 141.5t53 112.5t72 90t78.5 83t70.5 81.5t50 96t16.5 116.5q-1 12 7 22t21.5 14.5t30 4.5t35 -8.5t33.5 -24.5q1 -67 -14 -124t-40 -99t-55.5 -82.5t-61.5 -84t-56.5 -92t-41.5 -117t-16 -150.5q0 -95 31 -152t90 -57q74 0 126.5 92.5t55.5 282.5 q49 25 88 32t62.5 -7t23.5 -50q0 -90 -23.5 -166.5t-61.5 -128t-88 -88t-102 -53t-104 -16.5q-147 0 -224 86t-77 245zM246 754q-4 51 31.5 88t84.5 37q56 0 93 -31t41 -84q5 -54 -30.5 -96.5t-86.5 -42.5q-59 0 -94 33t-39 96z" />
<glyph unicode="&#xc0;" horiz-adv-x="1490" d="M0 135q0 52 15.5 96t40.5 70t53.5 39t56.5 7t47 -30q-31 -58 -37.5 -122.5t10 -116t56 -85.5t92.5 -34q192 0 420 479q-147 -14 -187 -14q-32 0 -49 17t-17.5 41.5t4 47t13.5 39.5q205 0 297 -2q133 305 340 920q93 37 150.5 31t83.5 -36t24 -77q-5 -91 -24.5 -381 t-28.5 -461h63q66 0 77 -16.5t-8 -55.5q-2 -7 -3 -10h-133q-14 -277 -19 -467q-40 -19 -83.5 -26.5t-75.5 4.5t-29 47q1 15 5.5 77t11.5 161.5t12 195.5q-142 -8 -299 -22q-69 -136 -136.5 -239.5t-142.5 -185t-155.5 -124.5t-163.5 -43q-32 0 -65.5 6.5t-73.5 25.5 t-70.5 48.5t-51 80t-20.5 115.5zM934 565q162 0 248 -2q22 456 26 658q-165 -425 -274 -656zM963 1757q-1 37 7 64t20.5 40.5t27.5 19.5t27.5 4.5t21.5 -7.5q124 -91 332 -211q6 -31 -7.5 -48.5t-37.5 -12.5q-67 11 -193.5 59t-197.5 92z" />
<glyph unicode="&#xc1;" horiz-adv-x="1490" d="M0 135q0 52 15.5 96t40.5 70t53.5 39t56.5 7t47 -30q-31 -58 -37.5 -122.5t10 -116t56 -85.5t92.5 -34q192 0 420 479q-147 -14 -187 -14q-32 0 -49 17t-17.5 41.5t4 47t13.5 39.5q205 0 297 -2q133 305 340 920q93 37 150.5 31t83.5 -36t24 -77q-5 -91 -24.5 -381 t-28.5 -461h63q66 0 77 -16.5t-8 -55.5q-2 -7 -3 -10h-133q-14 -277 -19 -467q-40 -19 -83.5 -26.5t-75.5 4.5t-29 47q1 15 5.5 77t11.5 161.5t12 195.5q-142 -8 -299 -22q-69 -136 -136.5 -239.5t-142.5 -185t-155.5 -124.5t-163.5 -43q-32 0 -65.5 6.5t-73.5 25.5 t-70.5 48.5t-51 80t-20.5 115.5zM934 565q162 0 248 -2q22 456 26 658q-165 -425 -274 -656zM1083 1663q353 205 402 235q45 27 84 -18.5t22 -101.5q-160 -62 -465 -174q-23 -6 -37.5 14t-5.5 45z" />
<glyph unicode="&#xc2;" horiz-adv-x="1490" d="M0 135q0 52 15.5 96t40.5 70t53.5 39t56.5 7t47 -30q-31 -58 -37.5 -122.5t10 -116t56 -85.5t92.5 -34q192 0 420 479q-147 -14 -187 -14q-32 0 -49 17t-17.5 41.5t4 47t13.5 39.5q205 0 297 -2q133 305 340 920q93 37 150.5 31t83.5 -36t24 -77q-5 -91 -24.5 -381 t-28.5 -461h63q66 0 77 -16.5t-8 -55.5q-2 -7 -3 -10h-133q-14 -277 -19 -467q-40 -19 -83.5 -26.5t-75.5 4.5t-29 47q1 15 5.5 77t11.5 161.5t12 195.5q-142 -8 -299 -22q-69 -136 -136.5 -239.5t-142.5 -185t-155.5 -124.5t-163.5 -43q-32 0 -65.5 6.5t-73.5 25.5 t-70.5 48.5t-51 80t-20.5 115.5zM934 565q162 0 248 -2q22 456 26 658q-165 -425 -274 -656zM1007 1617q-4 12 1 23q39 57 153 138.5t170 81.5q68 0 144.5 -65.5t107.5 -139.5q-42 -39 -78 -51t-56.5 -3.5t-31.5 27.5q-22 35 -62.5 63.5t-60.5 28.5q-62 0 -121 -35t-104 -92 q-23 -4 -40.5 4t-21.5 20z" />
<glyph unicode="&#xc3;" horiz-adv-x="1490" d="M0 135q0 52 15.5 96t40.5 70t53.5 39t56.5 7t47 -30q-31 -58 -37.5 -122.5t10 -116t56 -85.5t92.5 -34q192 0 420 479q-147 -14 -187 -14q-32 0 -49 17t-17.5 41.5t4 47t13.5 39.5q205 0 297 -2q133 305 340 920q93 37 150.5 31t83.5 -36t24 -77q-5 -91 -24.5 -381 t-28.5 -461h63q66 0 77 -16.5t-8 -55.5q-2 -7 -3 -10h-133q-14 -277 -19 -467q-40 -19 -83.5 -26.5t-75.5 4.5t-29 47q1 15 5.5 77t11.5 161.5t12 195.5q-142 -8 -299 -22q-69 -136 -136.5 -239.5t-142.5 -185t-155.5 -124.5t-163.5 -43q-32 0 -65.5 6.5t-73.5 25.5 t-70.5 48.5t-51 80t-20.5 115.5zM934 565q162 0 248 -2q22 456 26 658q-165 -425 -274 -656zM977 1720q27 60 80.5 92.5t97.5 32.5q38 0 85.5 -19t84.5 -42.5t80.5 -42.5t73.5 -19q33 0 73 58q30 0 42 -16.5t1 -41.5q-27 -60 -80.5 -92.5t-97.5 -32.5t-95.5 19t-89 42.5 t-76.5 42.5t-62 19q-34 0 -74 -57q-30 0 -42 16t-1 41z" />
<glyph unicode="&#xc4;" horiz-adv-x="1490" d="M0 135q0 52 15.5 96t40.5 70t53.5 39t56.5 7t47 -30q-31 -58 -37.5 -122.5t10 -116t56 -85.5t92.5 -34q192 0 420 479q-147 -14 -187 -14q-32 0 -49 17t-17.5 41.5t4 47t13.5 39.5q205 0 297 -2q133 305 340 920q93 37 150.5 31t83.5 -36t24 -77q-5 -91 -24.5 -381 t-28.5 -461h63q66 0 77 -16.5t-8 -55.5q-2 -7 -3 -10h-133q-14 -277 -19 -467q-40 -19 -83.5 -26.5t-75.5 4.5t-29 47q1 15 5.5 77t11.5 161.5t12 195.5q-142 -8 -299 -22q-69 -136 -136.5 -239.5t-142.5 -185t-155.5 -124.5t-163.5 -43q-32 0 -65.5 6.5t-73.5 25.5 t-70.5 48.5t-51 80t-20.5 115.5zM934 565q162 0 248 -2q22 456 26 658q-165 -425 -274 -656zM967 1716q0 57 31 82t73 25q38 0 67 -25t29 -65q0 -48 -27.5 -77.5t-74.5 -29.5q-45 0 -71.5 25t-26.5 65zM1395 1708q0 59 32.5 90t75.5 31t75 -27t32 -71q0 -43 -35.5 -75 t-81.5 -32t-72 22t-26 62z" />
<glyph unicode="&#xc5;" horiz-adv-x="1490" d="M0 135q0 52 15.5 96t40.5 70t53.5 39t56.5 7t47 -30q-31 -58 -37.5 -122.5t10 -116t56 -85.5t92.5 -34q192 0 420 479q-147 -14 -187 -14q-32 0 -49 17t-17.5 41.5t4 47t13.5 39.5q205 0 297 -2q133 305 340 920q93 37 150.5 31t83.5 -36t24 -77q-5 -91 -24.5 -381 t-28.5 -461h63q66 0 77 -16.5t-8 -55.5q-2 -7 -3 -10h-133q-14 -277 -19 -467q-40 -19 -83.5 -26.5t-75.5 4.5t-29 47q1 15 5.5 77t11.5 161.5t12 195.5q-142 -8 -299 -22q-69 -136 -136.5 -239.5t-142.5 -185t-155.5 -124.5t-163.5 -43q-32 0 -65.5 6.5t-73.5 25.5 t-70.5 48.5t-51 80t-20.5 115.5zM934 565q162 0 248 -2q22 456 26 658q-165 -425 -274 -656zM1130 1714q0 88 54.5 146.5t154.5 58.5q148 0 148 -137q0 -88 -59.5 -151.5t-155.5 -63.5q-142 0 -142 147zM1243 1784q0 -59 27.5 -93t62.5 -34q21 0 29 16t8 53q0 117 -65 117 q-24 0 -43 -17t-19 -42z" />
<glyph unicode="&#xc6;" horiz-adv-x="1896" d="M2 135q1 85 42.5 145.5t88 65.5t80.5 -29q-43 -78 -44 -162t40.5 -140t112.5 -56q116 0 235.5 159t247.5 441q-132 -6 -268 -6q-33 0 -49.5 7t-17.5 21t3.5 26t15.5 30q121 0 361 22q39 90 84.5 204t74 189t81.5 216.5t71 189.5q53 42 127 50q76 9 85 -34q2 -8 1 -18 q122 0 545 14q14 0 25 -3t17.5 -8.5t10.5 -11t4.5 -15.5t0.5 -17t-3 -19.5t-4.5 -19.5t-6 -20.5t-5.5 -18.5q-224 0 -494 4l-78 -622q192 20 320 20q29 0 44 -10.5t16.5 -31t-3.5 -41.5t-16 -50q-131 5 -377 -10l-59 -479l450 22q14 0 25 -3t17.5 -8.5t10.5 -11t4.5 -15.5 t0.5 -17t-3 -19.5t-4.5 -19.5t-6 -20.5t-5.5 -18.5q-141 0 -320 -5t-247 -5q-27 0 -39 0.5t-28.5 3t-22.5 8.5t-10.5 17t-2.5 28q6 87 52 529q-20 -1 -244 -17q-79 -162 -153 -283t-157 -220.5t-172.5 -151t-181.5 -51.5q-32 0 -65 6.5t-71.5 25.5t-68 48.5t-49 80 t-18.5 115.5zM991 676q78 7 201 22l57 580q-188 -452 -258 -602z" />
<glyph unicode="&#xc7;" horiz-adv-x="866" d="M74 391q0 200 37.5 383.5t103.5 324.5t152.5 246t189 160.5t209.5 55.5q150 0 185 -155q31 -139 -34 -338q-55 -170 -137 -257q-48 -50 -90 -51q-35 0 -55.5 13t-21.5 28t3 26q82 137 137 317q73 237 11 300q-20 20 -51 20q-75 0 -144 -67.5t-119 -175.5t-87 -239.5 t-55.5 -264t-18.5 -244.5q0 -101 14.5 -191.5t40.5 -163t64 -123t82.5 -76t98.5 -17.5t110 47.5t118.5 124t122.5 207.5q60 22 76 1q6 -10 0 -26q-93 -217 -223 -337t-267 -134l2 -2q-17 -20 -16 -37.5t13.5 -27t31.5 -22.5t37.5 -25.5t31.5 -35.5t13 -51 q0 -85 -68.5 -140.5t-160.5 -55.5q-108 0 -128 44q-15 32 24 60q14 10 32 16q16 -22 26.5 -34.5t30 -23.5t41.5 -11q33 0 51.5 20t18.5 52q0 30 -19.5 54t-43.5 36.5t-45 30.5t-24 37t19 55q25 38 64 59q-164 16 -273.5 177.5t-109.5 430.5z" />
<glyph unicode="&#xc8;" horiz-adv-x="776" d="M59 1008q48 201 181 353q154 177 348 196q21 2 43 2q133 0 196.5 -58t63.5 -180q0 -78 -26 -157.5t-67 -130t-81 -50.5q-28 0 -52.5 11t-25.5 28q24 52 44 119.5t31.5 143t-11 126.5t-82.5 51q-128 0 -234 -154q-95 -140 -125 -327q-30 -188 30 -291q46 -77 134 -78 q71 0 162 39q41 17 68.5 0.5t23.5 -65.5q-219 -129 -302 -307q-62 -134 -25 -239q30 -84 110 -102q17 -4 37 -4q89 0 179.5 85t162.5 262q22 17 54 10.5t22 -35.5q-47 -141 -130.5 -242t-176 -147.5t-185.5 -46.5q-70 0 -127.5 28t-94.5 75t-50 114t0.5 140t64.5 157.5 t135 163.5q-202 6 -278 164q-67 141 -17 346zM387 1757q-1 37 7.5 64t21 40.5t27.5 19.5t27.5 4.5t21.5 -7.5q128 -93 331 -211q6 -31 -7.5 -48.5t-37.5 -12.5q-67 11 -193.5 59t-197.5 92z" />
<glyph unicode="&#xc9;" horiz-adv-x="776" d="M59 1008q48 201 181 353q154 177 348 196q21 2 43 2q133 0 196.5 -58t63.5 -180q0 -78 -26 -157.5t-67 -130t-81 -50.5q-28 0 -52.5 11t-25.5 28q24 52 44 119.5t31.5 143t-11 126.5t-82.5 51q-128 0 -234 -154q-95 -140 -125 -327q-30 -188 30 -291q46 -77 134 -78 q71 0 162 39q41 17 68.5 0.5t23.5 -65.5q-219 -129 -302 -307q-62 -134 -25 -239q30 -84 110 -102q17 -4 37 -4q89 0 179.5 85t162.5 262q22 17 54 10.5t22 -35.5q-47 -141 -130.5 -242t-176 -147.5t-185.5 -46.5q-70 0 -127.5 28t-94.5 75t-50 114t0.5 140t64.5 157.5 t135 163.5q-202 6 -278 164q-67 141 -17 346zM438 1663q353 205 402 235q45 27 84 -18.5t22 -101.5q-160 -62 -465 -174q-23 -6 -37.5 14t-5.5 45z" />
<glyph unicode="&#xca;" horiz-adv-x="776" d="M59 1008q48 201 181 353q154 177 348 196q21 2 43 2q133 0 196.5 -58t63.5 -180q0 -78 -26 -157.5t-67 -130t-81 -50.5q-28 0 -52.5 11t-25.5 28q24 52 44 119.5t31.5 143t-11 126.5t-82.5 51q-128 0 -234 -154q-95 -140 -125 -327q-30 -188 30 -291q46 -77 134 -78 q71 0 162 39q41 17 68.5 0.5t23.5 -65.5q-219 -129 -302 -307q-62 -134 -25 -239q30 -84 110 -102q17 -4 37 -4q89 0 179.5 85t162.5 262q22 17 54 10.5t22 -35.5q-47 -141 -130.5 -242t-176 -147.5t-185.5 -46.5q-70 0 -127.5 28t-94.5 75t-50 114t0.5 140t64.5 157.5 t135 163.5q-202 6 -278 164q-67 141 -17 346zM351 1617q-4 12 1 23q38 57 153 138.5t171 81.5q68 0 144.5 -65.5t107.5 -139.5q-42 -39 -78 -51t-56.5 -3.5t-31.5 27.5q-22 35 -62.5 63.5t-60.5 28.5q-62 0 -121 -35t-104 -92q-23 -4 -41 4t-22 20z" />
<glyph unicode="&#xcb;" horiz-adv-x="776" d="M59 1008q48 201 181 353q154 177 348 196q21 2 43 2q133 0 196.5 -58t63.5 -180q0 -78 -26 -157.5t-67 -130t-81 -50.5q-28 0 -52.5 11t-25.5 28q24 52 44 119.5t31.5 143t-11 126.5t-82.5 51q-128 0 -234 -154q-95 -140 -125 -327q-30 -188 30 -291q46 -77 134 -78 q71 0 162 39q41 17 68.5 0.5t23.5 -65.5q-219 -129 -302 -307q-62 -134 -25 -239q30 -84 110 -102q17 -4 37 -4q89 0 179.5 85t162.5 262q22 17 54 10.5t22 -35.5q-47 -141 -130.5 -242t-176 -147.5t-185.5 -46.5q-70 0 -127.5 28t-94.5 75t-50 114t0.5 140t64.5 157.5 t135 163.5q-202 6 -278 164q-67 141 -17 346zM297 1716q0 57 31 82t73 25q39 0 68 -25t29 -65q0 -48 -28 -77.5t-75 -29.5q-45 0 -71.5 25t-26.5 65zM725 1708q0 59 33 90t76 31t74.5 -27t31.5 -71q0 -43 -35.5 -75t-81.5 -32t-72 22t-26 62z" />
<glyph unicode="&#xcc;" horiz-adv-x="856" d="M-109 41q17 47 53.5 76.5t63.5 29.5q20 0 49 -24t61.5 -57.5t68.5 -67.5t82.5 -58t92.5 -24q33 0 77 90t85 241.5t74 328.5t46.5 374.5t0.5 356.5q-4 47 -21.5 58t-64.5 5q-286 -43 -360 -59q-34 -7 -43.5 26.5t2 72.5t30.5 44q54 8 514 8q79 0 115 -30t41 -91 q13 -149 -4 -347t-62.5 -399.5t-109.5 -373t-154.5 -279.5t-187.5 -108q-119 0 -253 57t-196 150zM293 1716q-1 37 7 64t20.5 40.5t27.5 19.5t27.5 4.5t21.5 -7.5q124 -91 332 -211q6 -31 -7.5 -48.5t-37.5 -12.5q-67 11 -193.5 59t-197.5 92z" />
<glyph unicode="&#xcd;" horiz-adv-x="856" d="M-109 41q17 47 53.5 76.5t63.5 29.5q20 0 49 -24t61.5 -57.5t68.5 -67.5t82.5 -58t92.5 -24q33 0 77 90t85 241.5t74 328.5t46.5 374.5t0.5 356.5q-4 47 -21.5 58t-64.5 5q-286 -43 -360 -59q-34 -7 -43.5 26.5t2 72.5t30.5 44q54 8 514 8q79 0 115 -30t41 -91 q13 -149 -4 -347t-62.5 -399.5t-109.5 -373t-154.5 -279.5t-187.5 -108q-119 0 -253 57t-196 150zM340 1622q309 179 401 236q45 27 84.5 -19t22.5 -102q-160 -62 -465 -174q-23 -6 -37.5 14t-5.5 45z" />
<glyph unicode="&#xce;" horiz-adv-x="856" d="M-109 41q17 47 53.5 76.5t63.5 29.5q20 0 49 -24t61.5 -57.5t68.5 -67.5t82.5 -58t92.5 -24q33 0 77 90t85 241.5t74 328.5t46.5 374.5t0.5 356.5q-4 47 -21.5 58t-64.5 5q-286 -43 -360 -59q-34 -7 -43.5 26.5t2 72.5t30.5 44q54 8 514 8q79 0 115 -30t41 -91 q13 -149 -4 -347t-62.5 -399.5t-109.5 -373t-154.5 -279.5t-187.5 -108q-119 0 -253 57t-196 150zM290 1576q-4 12 1 23q39 57 153 138.5t170 81.5q68 0 144.5 -65.5t107.5 -139.5q-42 -39 -78 -51t-56.5 -3.5t-31.5 27.5q-22 35 -62 63.5t-60 28.5q-62 0 -121.5 -35 t-104.5 -92q-23 -4 -40.5 4t-21.5 20z" />
<glyph unicode="&#xcf;" horiz-adv-x="856" d="M-109 41q17 47 53.5 76.5t63.5 29.5q20 0 49 -24t61.5 -57.5t68.5 -67.5t82.5 -58t92.5 -24q33 0 77 90t85 241.5t74 328.5t46.5 374.5t0.5 356.5q-4 47 -21.5 58t-64.5 5q-286 -43 -360 -59q-34 -7 -43.5 26.5t2 72.5t30.5 44q54 8 514 8q79 0 115 -30t41 -91 q13 -149 -4 -347t-62.5 -399.5t-109.5 -373t-154.5 -279.5t-187.5 -108q-119 0 -253 57t-196 150zM246 1675q0 57 31 82t73 25q38 0 67 -25t29 -65q0 -48 -27.5 -77.5t-74.5 -29.5q-45 0 -71.5 25t-26.5 65zM674 1667q0 59 32.5 90t75.5 31t75 -27t32 -71q0 -43 -35.5 -75 t-81.5 -32t-72 22t-26 62z" />
<glyph unicode="&#xd0;" horiz-adv-x="1200" d="M3.5 1356q-6.5 22 0.5 52.5t23 51.5q412 51 691.5 42t423.5 -94t144 -249q0 -46 -20.5 -140t-60 -217t-93 -257.5t-124 -263.5t-147 -232t-169 -166t-183.5 -63q-199 0 -131 731q-39 -2 -116 -2q-105 0 -45 141q59 -4 176 -8q33 301 104 709q-166 -8 -448 -54 q-19 -3 -25.5 19zM516 183q-5 -150 6 -204.5t31 -54.5q70 0 158.5 137.5t160.5 331t122 411.5t50 370q0 202 -364 221q-84 -478 -115 -719h152q38 -1 48 -31.5t-11 -71.5l-205 -12q-28 -228 -33 -378z" />
<glyph unicode="&#xd1;" horiz-adv-x="1226" d="M3 1345q-8 46 28 92l12 13l514 12q60 2 92.5 -28.5t22.5 -104.5l-135 -1042q175 501 395 997q9 20 34 31t59 10t79 -27t86 -75q-50 -171 -84.5 -344t-48 -315.5t-11 -254.5t25 -174.5t61.5 -62.5q38 0 75 36t76 132q34 17 58.5 7t13.5 -36q-40 -101 -110 -169.5 t-154 -68.5q-39 0 -70 11t-61.5 41.5t-50.5 80t-31 132t-8.5 192t21.5 266t56 348.5q-124 -262 -216.5 -483.5t-213.5 -548.5q-34 -8 -50.5 -11t-42.5 -6.5t-38 -0.5t-25.5 9.5t-17.5 21t-2 36.5l127 1242q6 72 -80 63l-358 -49q-23 -4 -28 28zM543 1638q27 60 80.5 92.5 t97.5 32.5q38 0 85 -19t84.5 -42.5t80.5 -42.5t73 -19q34 0 74 58q30 0 42 -16.5t1 -41.5q-27 -60 -80.5 -92t-97.5 -32q-56 0 -122 30.5t-120.5 61t-81.5 30.5q-33 0 -73 -57q-30 0 -42 16t-1 41z" />
<glyph unicode="&#xd2;" horiz-adv-x="964" d="M35 477q0 143 23 276t61 232.5t84 183t93.5 137t89 84.5t71.5 35q38 73 97 109.5t126 36.5q120 0 200.5 -148t80.5 -397q0 -108 -15 -262q68 12 150 43q24 -15 22.5 -38.5t-22.5 -31.5q-89 -39 -162 -59q-25 -160 -74.5 -298t-110 -233.5t-129.5 -163.5t-136 -100.5 t-128 -32.5q-26 0 -52 5.5t-59 23t-61.5 45.5t-56.5 77t-47.5 112.5t-32 157t-12.5 206.5zM240 520q0 -149 26.5 -274.5t73.5 -199t104 -73.5q99 0 184 186t120 490q-169 -3 -262 110t-93 355q0 87 17 174q-82 -151 -126 -367t-44 -401zM430 1757q-1 37 7.5 64t21 40.5 t27.5 19.5t27.5 4.5t21.5 -7.5q128 -93 331 -211q6 -31 -7.5 -48.5t-37.5 -12.5q-67 11 -193.5 59t-197.5 92zM524 1257q0 -418 236 -487q8 152 8 240q0 227 -78 341q-47 69 -96 59t-65 -91q-5 -28 -5 -62z" />
<glyph unicode="&#xd3;" horiz-adv-x="964" d="M35 477q0 143 23 276t61 232.5t84 183t93.5 137t89 84.5t71.5 35q38 73 97 109.5t126 36.5q120 0 200.5 -148t80.5 -397q0 -108 -15 -262q68 12 150 43q24 -15 22.5 -38.5t-22.5 -31.5q-89 -39 -162 -59q-25 -160 -74.5 -298t-110 -233.5t-129.5 -163.5t-136 -100.5 t-128 -32.5q-26 0 -52 5.5t-59 23t-61.5 45.5t-56.5 77t-47.5 112.5t-32 157t-12.5 206.5zM240 520q0 -149 26.5 -274.5t73.5 -199t104 -73.5q99 0 184 186t120 490q-169 -3 -262 110t-93 355q0 87 17 174q-82 -151 -126 -367t-44 -401zM434 1663q353 205 402 235 q45 27 84 -18.5t22 -101.5q-160 -62 -465 -174q-23 -6 -37.5 14t-5.5 45zM524 1257q0 -418 236 -487q8 152 8 240q0 227 -78 341q-47 69 -96 59t-65 -91q-5 -28 -5 -62z" />
<glyph unicode="&#xd4;" horiz-adv-x="964" d="M35 477q0 143 23 276t61 232.5t84 183t93.5 137t89 84.5t71.5 35q38 73 97 109.5t126 36.5q120 0 200.5 -148t80.5 -397q0 -108 -15 -262q68 12 150 43q24 -15 22.5 -38.5t-22.5 -31.5q-89 -39 -162 -59q-25 -160 -74.5 -298t-110 -233.5t-129.5 -163.5t-136 -100.5 t-128 -32.5q-26 0 -52 5.5t-59 23t-61.5 45.5t-56.5 77t-47.5 112.5t-32 157t-12.5 206.5zM240 520q0 -149 26.5 -274.5t73.5 -199t104 -73.5q99 0 184 186t120 490q-169 -3 -262 110t-93 355q0 87 17 174q-82 -151 -126 -367t-44 -401zM396 1617q-4 12 1 23 q38 57 153 138.5t171 81.5q68 0 144.5 -65.5t107.5 -139.5q-42 -39 -78 -51t-56.5 -3.5t-31.5 27.5q-22 35 -62.5 63.5t-60.5 28.5q-62 0 -121 -35t-104 -92q-23 -4 -41 4t-22 20zM524 1257q0 -418 236 -487q8 152 8 240q0 227 -78 341q-47 69 -96 59t-65 -91q-5 -28 -5 -62 z" />
<glyph unicode="&#xd5;" horiz-adv-x="964" d="M35 477q0 143 23 276t61 232.5t84 183t93.5 137t89 84.5t71.5 35q38 73 97 109.5t126 36.5q120 0 200.5 -148t80.5 -397q0 -108 -15 -262q68 12 150 43q24 -15 22.5 -38.5t-22.5 -31.5q-89 -39 -162 -59q-25 -160 -74.5 -298t-110 -233.5t-129.5 -163.5t-136 -100.5 t-128 -32.5q-26 0 -52 5.5t-59 23t-61.5 45.5t-56.5 77t-47.5 112.5t-32 157t-12.5 206.5zM240 520q0 -149 26.5 -274.5t73.5 -199t104 -73.5q99 0 184 186t120 490q-169 -3 -262 110t-93 355q0 87 17 174q-82 -151 -126 -367t-44 -401zM397 1720q27 60 80.5 92.5t97.5 32.5 q38 0 85.5 -19t84.5 -42.5t80.5 -42.5t73.5 -19q34 0 74 58q30 0 42 -16.5t1 -41.5q-27 -60 -80.5 -92.5t-97.5 -32.5t-95.5 19t-89.5 42.5t-77 42.5t-62 19q-34 0 -74 -57q-30 0 -42 16t-1 41zM524 1257q0 -418 236 -487q8 152 8 240q0 227 -78 341q-47 69 -96 59t-65 -91 q-5 -28 -5 -62z" />
<glyph unicode="&#xd6;" horiz-adv-x="964" d="M35 477q0 143 23 276t61 232.5t84 183t93.5 137t89 84.5t71.5 35q38 73 97 109.5t126 36.5q120 0 200.5 -148t80.5 -397q0 -108 -15 -262q68 12 150 43q24 -15 22.5 -38.5t-22.5 -31.5q-89 -39 -162 -59q-25 -160 -74.5 -298t-110 -233.5t-129.5 -163.5t-136 -100.5 t-128 -32.5q-26 0 -52 5.5t-59 23t-61.5 45.5t-56.5 77t-47.5 112.5t-32 157t-12.5 206.5zM240 520q0 -149 26.5 -274.5t73.5 -199t104 -73.5q99 0 184 186t120 490q-169 -3 -262 110t-93 355q0 87 17 174q-82 -151 -126 -367t-44 -401zM358 1716q0 57 31 82t74 25 q38 0 67 -25t29 -65q0 -48 -27.5 -77.5t-74.5 -29.5q-45 0 -72 25t-27 65zM524 1257q0 -418 236 -487q8 152 8 240q0 227 -78 341q-47 69 -96 59t-65 -91q-5 -28 -5 -62zM786 1708q0 59 33 90t76 31t74.5 -27t31.5 -71q0 -43 -35 -75t-81 -32t-72.5 22t-26.5 62z" />
<glyph unicode="&#xd7;" horiz-adv-x="956" d="M115.5 262.5q-8.5 22.5 29.5 59.5l238 221l-188 233q-37 47 -5 81.5t113 37.5l197 -242l278 262q118 -38 47 -104l-260 -238l201 -243q37 -47 1.5 -81t-116.5 -36l-205 252l-264 -242q-58 17 -66.5 39.5z" />
<glyph unicode="&#xd8;" horiz-adv-x="964" d="M-83.5 -128.5q-19.5 23.5 9.5 65.5l144 229q-39 140 -39 354q0 197 48.5 389.5t128 338t188 235.5t220.5 90q75 0 137 -39t105 -113l127 201q68 10 88.5 -20t-10.5 -72l-150 -234q45 -143 45 -340q0 -154 -20 -293.5t-54 -249t-80.5 -202.5t-99 -158.5t-109 -112 t-112 -68.5t-106.5 -22q-29 0 -59.5 8t-67 28t-72 61t-63.5 98l-119 -184q-60 -13 -79.5 10.5zM231 590q0 -65 7 -158l489 778q-63 209 -190 209q-58 0 -113.5 -64.5t-98 -173.5t-68.5 -264.5t-26 -326.5zM260 274q27 -130 76.5 -208t122.5 -78q81 0 152.5 116t115 314.5 t43.5 425.5q0 114 -12 209z" />
<glyph unicode="&#xd9;" horiz-adv-x="1128" d="M147.5 482q0.5 145 18.5 304t59.5 340t102.5 361q52 38 111.5 48.5t97.5 -7t34 -55.5q-88 -199 -144 -417.5t-71.5 -399t-8 -329t39 -232t76.5 -83.5q37 0 92 104.5t110 268.5t103 392.5t68 451.5q95 72 170 66q57 -5 63 -54q2 -21 -6 -47q-47 -172 -77 -325.5t-40 -264 t-9 -203t11.5 -152t25.5 -101t30 -59t28 -17.5q37 0 74 36t76 132q34 17 57.5 8t13.5 -37q-40 -101 -109.5 -169.5t-154.5 -68.5q-103 0 -152 76.5t-69 237.5q-60 -200 -160 -318.5t-198 -118.5q-60 0 -109.5 45t-82.5 129.5t-52 198.5t-18.5 259zM510 1696q-1 37 7 64 t20.5 40.5t27.5 19.5t27.5 4.5t21.5 -7.5q124 -91 332 -211q6 -32 -7.5 -49.5t-37.5 -12.5q-67 11 -193.5 59.5t-197.5 92.5z" />
<glyph unicode="&#xda;" horiz-adv-x="1128" d="M147.5 482q0.5 145 18.5 304t59.5 340t102.5 361q52 38 111.5 48.5t97.5 -7t34 -55.5q-88 -199 -144 -417.5t-71.5 -399t-8 -329t39 -232t76.5 -83.5q37 0 92 104.5t110 268.5t103 392.5t68 451.5q95 72 170 66q57 -5 63 -54q2 -21 -6 -47q-47 -172 -77 -325.5t-40 -264 t-9 -203t11.5 -152t25.5 -101t30 -59t28 -17.5q37 0 74 36t76 132q34 17 57.5 8t13.5 -37q-40 -101 -109.5 -169.5t-154.5 -68.5q-103 0 -152 76.5t-69 237.5q-60 -200 -160 -318.5t-198 -118.5q-60 0 -109.5 45t-82.5 129.5t-52 198.5t-18.5 259zM651 1581q326 189 402 236 q45 27 84 -19t22 -102q-160 -62 -465 -174q-23 -6 -37.5 14t-5.5 45z" />
<glyph unicode="&#xdb;" horiz-adv-x="1128" d="M147.5 482q0.5 145 18.5 304t59.5 340t102.5 361q52 38 111.5 48.5t97.5 -7t34 -55.5q-88 -199 -144 -417.5t-71.5 -399t-8 -329t39 -232t76.5 -83.5q37 0 92 104.5t110 268.5t103 392.5t68 451.5q95 72 170 66q57 -5 63 -54q2 -21 -6 -47q-47 -172 -77 -325.5t-40 -264 t-9 -203t11.5 -152t25.5 -101t30 -59t28 -17.5q37 0 74 36t76 132q34 17 57.5 8t13.5 -37q-40 -101 -109.5 -169.5t-154.5 -68.5q-103 0 -152 76.5t-69 237.5q-60 -200 -160 -318.5t-198 -118.5q-60 0 -109.5 45t-82.5 129.5t-52 198.5t-18.5 259zM501 1640q-4 12 1 23 q37 55 130.5 115.5t151.5 60.5q73 0 160 -79t129 -187q-42 -39 -79 -51.5t-57.5 -3.5t-29.5 28q-26 58 -74 106t-85 48q-47 0 -97 -21.5t-88 -62.5q-23 -4 -40.5 4t-21.5 20z" />
<glyph unicode="&#xdc;" horiz-adv-x="1128" d="M147.5 482q0.5 145 18.5 304t59.5 340t102.5 361q52 38 111.5 48.5t97.5 -7t34 -55.5q-88 -199 -144 -417.5t-71.5 -399t-8 -329t39 -232t76.5 -83.5q37 0 92 104.5t110 268.5t103 392.5t68 451.5q95 72 170 66q57 -5 63 -54q2 -21 -6 -47q-47 -172 -77 -325.5t-40 -264 t-9 -203t11.5 -152t25.5 -101t30 -59t28 -17.5q37 0 74 36t76 132q34 17 57.5 8t13.5 -37q-40 -101 -109.5 -169.5t-154.5 -68.5q-103 0 -152 76.5t-69 237.5q-60 -200 -160 -318.5t-198 -118.5q-60 0 -109.5 45t-82.5 129.5t-52 198.5t-18.5 259zM473 1716q0 57 31 82 t74 25q38 0 67 -25t29 -65q0 -48 -28 -77.5t-75 -29.5q-45 0 -71.5 25t-26.5 65zM860 1626q0 59 33 90t76 31t74.5 -27t31.5 -71q0 -43 -35.5 -75t-81.5 -32t-72 22t-26 62z" />
<glyph unicode="&#xdd;" horiz-adv-x="950" d="M-72 -20q4 47 35.5 95t77.5 48q25 0 75 -34.5t98.5 -76t104.5 -76t91 -34.5q60 0 120.5 118t105 292t75.5 355t43 326q-47 -111 -101.5 -196t-100 -131t-91 -75t-73 -37.5t-48.5 -8.5q-36 0 -59.5 23t-37 81t-11 151t24 238.5t62.5 337.5q9 39 -4.5 62.5t-56.5 13.5 l-283 -66q-36 -5 -43 33q-6 40 24 75q8 10 19 17q5 0 172 20t220 19q93 -3 131.5 -39t23.5 -104q-75 -329 -98.5 -509.5t10.5 -186.5q64 0 146.5 131.5t207.5 447.5q10 26 49.5 39t88.5 0.5t80 -53.5q-38 -305 -107 -578t-151.5 -466t-176.5 -305.5t-182 -112.5 q-84 0 -227 53t-234 113zM598 1663q336 195 401 235q45 27 84.5 -18.5t22.5 -101.5q-160 -62 -465 -174q-23 -6 -37.5 14t-5.5 45z" />
<glyph unicode="&#xde;" horiz-adv-x="1224" d="M0 432q0 46 15.5 86t40.5 64t53.5 36t56.5 6t47 -30q-32 -59 -36.5 -122.5t16 -115.5t72.5 -86t126 -34q45 0 70 4q9 91 39.5 383t46.5 458q-175 -23 -387 -86q-27 -8 -29 28q-1 41 21 80q7 11 12 15q225 50 393 68l27 276q69 48 137 52q70 4 71 -54l-1 -12l-31 -250 q278 3 408 -87t130 -243q0 -105 -57 -211.5t-151 -194.5t-212 -158.5t-243 -113.5l-37 -305q-43 -17 -81 -21.5t-64 9.5t-23 49q1 17 21 223q-49 -6 -99 -6q-52 0 -97 6.5t-93.5 25.5t-83 50.5t-56.5 85.5t-22 125zM647 289q181 73 306.5 214.5t125.5 303.5q0 120 -81 195 t-253 85z" />
<glyph unicode="&#xdf;" horiz-adv-x="790" d="M51.5 209.5q14.5 311.5 60 551t116 402t164 246.5t204.5 84q150 0 195 -125q45 -122 -26 -308q-76 -201 -244 -360q-23 -21 -46 -41q97 4 166.5 -35t102 -103t32.5 -144q0 -100 -45 -200.5t-123 -167t-164 -66.5q-81 0 -125.5 68.5t-44.5 158.5q0 78 25 116t62 32.5 t77 -46.5q-17 -62 -22 -109.5t-0.5 -74.5t16 -44.5t24.5 -23.5t27 -6q31 0 60 44.5t47 114.5t18 140q0 117 -59.5 188t-186.5 54q-22 19 -27.5 42.5t11.5 45.5q114 92 208 288q91 191 96 333q-3 136 -89 143q-114 0 -195.5 -244.5t-123.5 -670.5t-49 -1010q-65 -29 -103 -20 t-35 55q-18 381 -3.5 692.5z" />
<glyph unicode="&#xe0;" d="M33 303q0 92 25 183t71.5 168t123 125t169.5 48q35 0 68 -11.5t61 -33t40.5 -59t2.5 -84.5q42 -25 12 -129q-56 -195 -56 -316.5t66 -121.5q37 0 74 36t76 132q23 18 51 8t21 -37q-29 -99 -103 -169t-162 -71q-113 0 -147 131q-43 -73 -86.5 -101t-97.5 -28 q-71 0 -119 46t-69 118t-21 166zM213 260q0 -84 17.5 -137t48.5 -53q23 0 45 22t43 69t38 133.5t27 203.5q-23 6 -31.5 18t-7.5 37q25 26 39 67.5t3.5 75t-48.5 33.5q-53 0 -94.5 -78t-60.5 -183t-19 -208zM217 1112q9 36 23.5 60t30 34t31.5 13t28 -2t18 -13 q105 -127 213 -235q-1 -32 -18.5 -45t-38.5 -4q-69 30 -149.5 82t-137.5 110z" />
<glyph unicode="&#xe1;" d="M33 303q0 92 25 183t71.5 168t123 125t169.5 48q35 0 68 -11.5t61 -33t40.5 -59t2.5 -84.5q42 -25 12 -129q-56 -195 -56 -316.5t66 -121.5q37 0 74 36t76 132q23 18 51 8t21 -37q-29 -99 -103 -169t-162 -71q-113 0 -147 131q-43 -73 -86.5 -101t-97.5 -28 q-71 0 -119 46t-69 118t-21 166zM213 260q0 -84 17.5 -137t48.5 -53q23 0 45 22t43 69t38 133.5t27 203.5q-23 6 -31.5 18t-7.5 37q25 26 39 67.5t3.5 75t-48.5 33.5q-53 0 -94.5 -78t-60.5 -183t-19 -208zM238 961q188 197 276 299q27 24 55.5 21.5t50.5 -31t21 -66.5 q-71 -58 -330 -258q-29 -21 -52.5 -7t-20.5 42z" />
<glyph unicode="&#xe2;" d="M33 303q0 92 25 183t71.5 168t123 125t169.5 48q35 0 68 -11.5t61 -33t40.5 -59t2.5 -84.5q42 -25 12 -129q-56 -195 -56 -316.5t66 -121.5q37 0 74 36t76 132q23 18 51 8t21 -37q-29 -99 -103 -169t-162 -71q-113 0 -147 131q-43 -73 -86.5 -101t-97.5 -28 q-71 0 -119 46t-69 118t-21 166zM169 938q-4 12 1 23q28 42 74 96t105.5 103.5t96.5 49.5q22 0 43 -11t41 -35.5t34 -44.5t32.5 -58t25.5 -53.5t23 -53.5q4 -9 6 -14q-43 -32 -77 -43.5t-53 -4.5t-25 26q-15 51 -42 107t-44 56q-44 0 -179 -168q-23 -4 -40.5 4.5t-21.5 20.5 zM213 260q0 -84 17.5 -137t48.5 -53q23 0 45 22t43 69t38 133.5t27 203.5q-23 6 -31.5 18t-7.5 37q25 26 39 67.5t3.5 75t-48.5 33.5q-53 0 -94.5 -78t-60.5 -183t-19 -208z" />
<glyph unicode="&#xe3;" d="M33 303q0 92 25 183t71.5 168t123 125t169.5 48q35 0 68 -11.5t61 -33t40.5 -59t2.5 -84.5q42 -25 12 -129q-56 -195 -56 -316.5t66 -121.5q37 0 74 36t76 132q23 18 51 8t21 -37q-29 -99 -103 -169t-162 -71q-113 0 -147 131q-43 -73 -86.5 -101t-97.5 -28 q-71 0 -119 46t-69 118t-21 166zM174 1055q27 60 80.5 92.5t97.5 32.5q31 0 57 -12.5t44 -31t34.5 -36.5t38.5 -30.5t47 -12.5q34 0 74 57q30 0 42 -16t1 -41q-27 -60 -80.5 -92.5t-97.5 -32.5q-36 0 -66 12.5t-49 30.5t-35 36.5t-34 31t-37 12.5q-34 0 -74 -58 q-30 0 -42 16.5t-1 41.5zM213 260q0 -84 17.5 -137t48.5 -53q23 0 45 22t43 69t38 133.5t27 203.5q-23 6 -31.5 18t-7.5 37q25 26 39 67.5t3.5 75t-48.5 33.5q-53 0 -94.5 -78t-60.5 -183t-19 -208z" />
<glyph unicode="&#xe4;" d="M33 303q0 92 25 183t71.5 168t123 125t169.5 48q35 0 68 -11.5t61 -33t40.5 -59t2.5 -84.5q42 -25 12 -129q-56 -195 -56 -316.5t66 -121.5q37 0 74 36t76 132q23 18 51 8t21 -37q-29 -99 -103 -169t-162 -71q-113 0 -147 131q-43 -73 -86.5 -101t-97.5 -28 q-71 0 -119 46t-69 118t-21 166zM147 1049q0 57 31 81.5t74 24.5q38 0 67 -25t29 -65q0 -48 -27.5 -77.5t-74.5 -29.5q-45 0 -72 25.5t-27 65.5zM213 260q0 -84 17.5 -137t48.5 -53q23 0 45 22t43 69t38 133.5t27 203.5q-23 6 -31.5 18t-7.5 37q25 26 39 67.5t3.5 75 t-48.5 33.5q-53 0 -94.5 -78t-60.5 -183t-19 -208zM473 1040q0 59 33 90t76 31t74.5 -27t31.5 -71q0 -43 -35.5 -75t-81.5 -32t-72 22t-26 62z" />
<glyph unicode="&#xe5;" d="M33 303q0 92 25 183t71.5 168t123 125t169.5 48q35 0 68 -11.5t61 -33t40.5 -59t2.5 -84.5q42 -25 12 -129q-56 -195 -56 -316.5t66 -121.5q37 0 74 36t76 132q23 18 51 8t21 -37q-29 -99 -103 -169t-162 -71q-113 0 -147 131q-43 -73 -86.5 -101t-97.5 -28 q-71 0 -119 46t-69 118t-21 166zM213 260q0 -84 17.5 -137t48.5 -53q23 0 45 22t43 69t38 133.5t27 203.5q-23 6 -31.5 18t-7.5 37q25 26 39 67.5t3.5 75t-48.5 33.5q-53 0 -94.5 -78t-60.5 -183t-19 -208zM244 1049q0 88 54.5 146t154.5 58q147 0 147 -137 q0 -88 -59.5 -151.5t-155.5 -63.5q-141 0 -141 148zM356 1118q0 -59 27.5 -93t62.5 -34q21 0 29 16.5t8 53.5q0 117 -65 117q-24 0 -43 -17.5t-19 -42.5z" />
<glyph unicode="&#xe6;" horiz-adv-x="931" d="M29 289q0 108 30 205.5t79 164.5t112 106.5t127 39.5q46 0 102 -17l10 70l21 9t22 9t20.5 7.5t20.5 5.5t18 1.5t16 -3.5t11.5 -10t8.5 -17t4 -26q57 32 108 32q86 0 128 -52t42 -136q0 -154 -85 -293.5t-212 -241.5q20 -69 58.5 -105t89.5 -36q68 0 132 78t105 201 q26 14 43.5 11.5t26 -13.5t6.5 -23q-9 -52 -42 -110.5t-79.5 -109.5t-108.5 -84.5t-124 -33.5q-94 0 -169.5 56.5t-109.5 162.5q-78 -186 -209 -186q-37 0 -70.5 17t-64.5 53.5t-49 105.5t-18 162zM209 221q0 -79 18 -126.5t47 -47.5q27 0 54.5 33t57.5 122.5t48 225.5 l29 223q-11 19 -48 35t-63 16q-40 0 -69.5 -49t-44.5 -126.5t-22 -154t-7 -151.5zM594 291q0 -39 2 -55q73 86 118.5 204t45.5 258q0 66 -33 66q-12 0 -28 -16.5t-34.5 -54t-34 -90t-26 -134.5t-10.5 -178z" />
<glyph unicode="&#xe7;" horiz-adv-x="567" d="M53 287q0 153 48.5 286.5t131.5 213t179 79.5q95 0 126 -106q28 -100 -9 -227q-36 -120 -103 -161q-26 -16 -53 -16q-50 0 -47 31q0 1 13.5 44.5t30 102t30 118t13.5 100.5t-20 41q-45 0 -84.5 -75t-61.5 -182.5t-22 -209.5q0 -101 23.5 -170.5t61 -98.5t84 -28.5t91 30 t85 88t63.5 134.5q28 19 54.5 8.5t21.5 -33.5q-34 -143 -134 -231t-219 -97q-11 -17 -6 -32t18 -24t31.5 -21.5t35 -25t28.5 -34.5t12 -49q0 -85 -68.5 -141t-160.5 -56q-107 0 -128 44q-15 32 23 60q14 10 33 17q16 -22 26.5 -34.5t30 -23.5t41.5 -11q33 0 51.5 19.5 t18.5 51.5q0 30 -19.5 54t-43.5 36.5t-45 30.5t-24 37t19 55q18 29 50 51q-99 20 -162.5 109.5t-63.5 245.5z" />
<glyph unicode="&#xe8;" horiz-adv-x="567" d="M51 301q0 133 24.5 237.5t61 164t82.5 98.5t84 52t72 13q86 0 128 -52t42 -136q0 -154 -85 -293.5t-212 -241.5q20 -69 58.5 -105t88.5 -36q68 0 132.5 78t105.5 201q26 14 43.5 11.5t26 -13.5t6.5 -23q-13 -71 -63.5 -148t-130.5 -133.5t-161 -56.5q-128 0 -215.5 100 t-87.5 283zM178 1112q9 36 23.5 60t30 34t31.5 13t28 -2t18 -13q104 -127 213 -235q-1 -32 -18.5 -45t-38.5 -4q-69 30 -149.5 82t-137.5 110zM229 291q0 -39 2 -55q73 86 118.5 204t45.5 258q0 66 -33 66q-12 0 -28 -16.5t-34.5 -54t-34 -90t-26 -134.5t-10.5 -178z" />
<glyph unicode="&#xe9;" horiz-adv-x="567" d="M51 301q0 133 24.5 237.5t61 164t82.5 98.5t84 52t72 13q86 0 128 -52t42 -136q0 -154 -85 -293.5t-212 -241.5q20 -69 58.5 -105t88.5 -36q68 0 132.5 78t105.5 201q26 14 43.5 11.5t26 -13.5t6.5 -23q-13 -71 -63.5 -148t-130.5 -133.5t-161 -56.5q-128 0 -215.5 100 t-87.5 283zM188 961q198 207 277 299q27 24 55.5 21.5t50.5 -31t21 -66.5q-71 -58 -330 -258q-29 -21 -53 -7t-21 42zM229 291q0 -39 2 -55q73 86 118.5 204t45.5 258q0 66 -33 66q-12 0 -28 -16.5t-34.5 -54t-34 -90t-26 -134.5t-10.5 -178z" />
<glyph unicode="&#xea;" horiz-adv-x="567" d="M51 301q0 133 24.5 237.5t61 164t82.5 98.5t84 52t72 13q86 0 128 -52t42 -136q0 -154 -85 -293.5t-212 -241.5q20 -69 58.5 -105t88.5 -36q68 0 132.5 78t105.5 201q26 14 43.5 11.5t26 -13.5t6.5 -23q-13 -71 -63.5 -148t-130.5 -133.5t-161 -56.5q-128 0 -215.5 100 t-87.5 283zM155 938q-4 12 1 23q28 42 74 96t105.5 103.5t96.5 49.5q22 0 43 -11t41 -35.5t34 -44.5t32.5 -58t25.5 -53.5t23 -53.5q4 -9 6 -14q-43 -32 -77.5 -43.5t-53.5 -4.5t-25 26q-15 51 -42 107t-44 56q-43 0 -178 -168q-23 -4 -40.5 4.5t-21.5 20.5zM229 291 q0 -39 2 -55q73 86 118.5 204t45.5 258q0 66 -33 66q-12 0 -28 -16.5t-34.5 -54t-34 -90t-26 -134.5t-10.5 -178z" />
<glyph unicode="&#xeb;" horiz-adv-x="567" d="M51 301q0 133 24.5 237.5t61 164t82.5 98.5t84 52t72 13q86 0 128 -52t42 -136q0 -154 -85 -293.5t-212 -241.5q20 -69 58.5 -105t88.5 -36q68 0 132.5 78t105.5 201q26 14 43.5 11.5t26 -13.5t6.5 -23q-13 -71 -63.5 -148t-130.5 -133.5t-161 -56.5q-128 0 -215.5 100 t-87.5 283zM88 1049q0 57 31 81.5t74 24.5q38 0 67 -25t29 -65q0 -48 -28 -77.5t-75 -29.5q-45 0 -71.5 25.5t-26.5 65.5zM229 291q0 -39 2 -55q73 86 118.5 204t45.5 258q0 66 -33 66q-12 0 -28 -16.5t-34.5 -54t-34 -90t-26 -134.5t-10.5 -178zM414 1040q0 59 32.5 90 t75.5 31t75 -27t32 -71q0 -43 -35.5 -75t-81.5 -32t-72 22t-26 62z" />
<glyph unicode="&#xec;" horiz-adv-x="368" d="M6 1112q9 36 23.5 60t30 34t31.5 13t28 -2t18 -13q105 -127 213 -235q-1 -32 -18.5 -45t-38.5 -4q-69 30 -149.5 82t-137.5 110zM63 222q-9 86 3.5 220.5t50.5 300.5q45 19 79.5 27t54 5.5t32 -11.5t13.5 -23t-1 -30q-26 -112 -44 -199t-28.5 -160t-13 -124t3.5 -86.5 t21.5 -52.5t39.5 -17q37 0 74 36t76 132q23 18 51 8t21 -37q-29 -99 -103 -169t-162 -71q-41 0 -74.5 24.5t-59 82.5t-34.5 144z" />
<glyph unicode="&#xed;" horiz-adv-x="368" d="M63 222q-9 86 3.5 220.5t50.5 300.5q45 19 79.5 27t54 5.5t32 -11.5t13.5 -23t-1 -30q-26 -112 -44 -199t-28.5 -160t-13 -124t3.5 -86.5t21.5 -52.5t39.5 -17q37 0 74 36t76 132q23 18 51 8t21 -37q-29 -99 -103 -169t-162 -71q-41 0 -74.5 24.5t-59 82.5t-34.5 144z M143 961q198 207 277 299q27 24 55.5 21.5t50.5 -31t21 -66.5q-71 -58 -330 -258q-29 -21 -53 -7t-21 42z" />
<glyph unicode="&#xee;" horiz-adv-x="368" d="M7 938q-4 12 1 23q50 74 137 161.5t140 87.5q32 0 61.5 -22.5t58 -72t41 -76t36.5 -83.5q2 -3 2.5 -5t2 -5.5t2.5 -5.5q-43 -32 -77 -43.5t-53 -4.5t-25 26q-15 51 -42 107t-44 56q-43 0 -178 -168q-23 -4 -41 4.5t-22 20.5zM63 222q-9 86 3.5 220.5t50.5 300.5 q45 19 79.5 27t54 5.5t32 -11.5t13.5 -23t-1 -30q-26 -112 -44 -199t-28.5 -160t-13 -124t3.5 -86.5t21.5 -52.5t39.5 -17q37 0 74 36t76 132q23 18 51 8t21 -37q-29 -99 -103 -169t-162 -71q-41 0 -74.5 24.5t-59 82.5t-34.5 144z" />
<glyph unicode="&#xef;" horiz-adv-x="368" d="M-27 1049q0 57 31 81.5t74 24.5q38 0 67 -25t29 -65q0 -48 -27.5 -77.5t-74.5 -29.5q-45 0 -72 25.5t-27 65.5zM63 222q-9 86 3.5 220.5t50.5 300.5q45 19 79.5 27t54 5.5t32 -11.5t13.5 -23t-1 -30q-26 -112 -44 -199t-28.5 -160t-13 -124t3.5 -86.5t21.5 -52.5 t39.5 -17q37 0 74 36t76 132q23 18 51 8t21 -37q-29 -99 -103 -169t-162 -71q-41 0 -74.5 24.5t-59 82.5t-34.5 144zM299 1040q0 59 33 90t76 31t74.5 -27t31.5 -71q0 -43 -35.5 -75t-81.5 -32t-72 22t-26 62z" />
<glyph unicode="&#xf0;" horiz-adv-x="700" d="M29 309q0 107 33 208.5t89.5 176.5t139 109.5t172.5 9.5q-18 141 -55 258l-91 -43q-63 -26 -90 -3.5t-12 87.5l147 72q-79 163 -219 264q2 32 20 48t50 5q159 -86 274 -258l109 53q42 14 66 -6.5t14 -91.5l-129 -61q104 -214 104 -441q0 -127 -22 -237.5t-58 -188 t-80 -138t-91 -96t-87.5 -53.5t-72.5 -18q-94 0 -152.5 84t-58.5 260zM209 274q0 -51 5.5 -91.5t13.5 -63t18 -37.5t18.5 -20t16.5 -5q41 0 86.5 70t77.5 188.5t32 241.5q0 41 -4 119q-51 35 -91.5 42.5t-69 -13t-49 -58.5t-32 -97.5t-17 -126.5t-5.5 -149z" />
<glyph unicode="&#xf1;" d="M14 45q3 249 70 746l74 32q52 22 86 7t28 -54q-8 -47 -55 -269t-61 -339q84 221 144.5 358.5t135.5 280.5q16 30 46 41t70 -5t77 -61q-34 -159 -52 -286t-20.5 -204.5t5.5 -128.5t22 -71t32 -20q37 0 74 36t76 132q23 18 51 8t21 -37q-29 -99 -103 -168.5t-162 -69.5 q-78 0 -124.5 78t-54 212.5t17.5 316.5q-117 -250 -248 -588q-80 -25 -115 -8.5t-35 61.5zM123 1055q27 60 80.5 92.5t97.5 32.5q31 0 57 -12.5t44 -31t34.5 -36.5t38.5 -30.5t47 -12.5q34 0 74 57q30 0 42 -16t1 -41q-27 -60 -80.5 -92.5t-97.5 -32.5q-36 0 -66 12.5 t-49 30.5t-35 36.5t-34 31t-37 12.5q-34 0 -74 -58q-30 0 -42 16.5t-1 41.5z" />
<glyph unicode="&#xf2;" horiz-adv-x="700" d="M41 311q0 104 20 192t51 144t68 94.5t71 53t60 10.5q48 45 103 45q91 0 150 -72.5t59 -212.5q0 -12 -1 -33.5t-1 -31.5q69 22 119 91t69 189q24 7 38.5 -1t14.5 -27q0 -102 -68 -204.5t-184 -135.5q-17 -105 -58 -192t-90.5 -139t-99 -80t-90.5 -28q-21 0 -42.5 4.5 t-49 16.5t-51 37t-44 60t-32.5 92t-12 128zM170 1112q9 36 23.5 60t30 34t31.5 13t28 -2t18 -13q105 -127 213 -235q-1 -32 -18.5 -45t-38.5 -4q-69 30 -149.5 82t-137.5 110zM213 343.5q5 -119.5 37.5 -200t73.5 -80.5q40 0 71 52.5t47.5 124.5t26.5 163q-89 14 -154.5 69 t-68.5 128q-38 -137 -33 -256.5zM375 741q-19 -57 11.5 -124.5t90.5 -102.5v43q0 128 -50 183q-27 29 -45 13q-5 -5 -7 -12z" />
<glyph unicode="&#xf3;" horiz-adv-x="700" d="M41 311q0 104 20 192t51 144t68 94.5t71 53t60 10.5q48 45 103 45q91 0 150 -72.5t59 -212.5q0 -12 -1 -33.5t-1 -31.5q69 22 119 91t69 189q24 7 38.5 -1t14.5 -27q0 -102 -68 -204.5t-184 -135.5q-17 -105 -58 -192t-90.5 -139t-99 -80t-90.5 -28q-21 0 -42.5 4.5 t-49 16.5t-51 37t-44 60t-32.5 92t-12 128zM213 343.5q5 -119.5 37.5 -200t73.5 -80.5q40 0 71 52.5t47.5 124.5t26.5 163q-89 14 -154.5 69t-68.5 128q-38 -137 -33 -256.5zM287 961q188 197 276 299q27 24 55.5 21.5t50.5 -31t21 -66.5q-71 -58 -330 -258 q-29 -21 -52.5 -7t-20.5 42zM375 741q-19 -57 11.5 -124.5t90.5 -102.5v43q0 128 -50 183q-27 29 -45 13q-5 -5 -7 -12z" />
<glyph unicode="&#xf4;" horiz-adv-x="700" d="M41 311q0 104 20 192t51 144t68 94.5t71 53t60 10.5q48 45 103 45q91 0 150 -72.5t59 -212.5q0 -12 -1 -33.5t-1 -31.5q69 22 119 91t69 189q24 7 38.5 -1t14.5 -27q0 -102 -68 -204.5t-184 -135.5q-17 -105 -58 -192t-90.5 -139t-99 -80t-90.5 -28q-21 0 -42.5 4.5 t-49 16.5t-51 37t-44 60t-32.5 92t-12 128zM183 938q-4 12 1 23q50 74 137 161.5t140 87.5q22 0 43 -11t41 -35.5t34 -44.5t32.5 -58t25.5 -53.5t23 -53.5q4 -9 6 -14q-43 -32 -77.5 -43.5t-53.5 -4.5t-25 26q-15 51 -42 107t-44 56q-43 0 -178 -168q-23 -4 -41 4.5 t-22 20.5zM213 343.5q5 -119.5 37.5 -200t73.5 -80.5q40 0 71 52.5t47.5 124.5t26.5 163q-89 14 -154.5 69t-68.5 128q-38 -137 -33 -256.5zM375 741q-19 -57 11.5 -124.5t90.5 -102.5v43q0 128 -50 183q-27 29 -45 13q-5 -5 -7 -12z" />
<glyph unicode="&#xf5;" horiz-adv-x="700" d="M41 311q0 104 20 192t51 144t68 94.5t71 53t60 10.5q48 45 103 45q91 0 150 -72.5t59 -212.5q0 -12 -1 -33.5t-1 -31.5q69 22 119 91t69 189q24 7 38.5 -1t14.5 -27q0 -102 -68 -204.5t-184 -135.5q-17 -105 -58 -192t-90.5 -139t-99 -80t-90.5 -28q-21 0 -42.5 4.5 t-49 16.5t-51 37t-44 60t-32.5 92t-12 128zM178 1055q27 60 80.5 92.5t97.5 32.5q31 0 57 -12.5t44 -31t35 -36.5t39 -30.5t47 -12.5q33 0 73 57q30 0 42 -16t1 -41q-27 -60 -80.5 -92.5t-97.5 -32.5q-36 0 -66 12.5t-49 30.5t-35 36.5t-34 31t-37 12.5q-34 0 -74 -58 q-30 0 -42 16.5t-1 41.5zM213 343.5q5 -119.5 37.5 -200t73.5 -80.5q40 0 71 52.5t47.5 124.5t26.5 163q-89 14 -154.5 69t-68.5 128q-38 -137 -33 -256.5zM375 741q-19 -57 11.5 -124.5t90.5 -102.5v43q0 128 -50 183q-27 29 -45 13q-5 -5 -7 -12z" />
<glyph unicode="&#xf6;" horiz-adv-x="700" d="M41 311q0 104 20 192t51 144t68 94.5t71 53t60 10.5q48 45 103 45q91 0 150 -72.5t59 -212.5q0 -12 -1 -33.5t-1 -31.5q69 22 119 91t69 189q24 7 38.5 -1t14.5 -27q0 -102 -68 -204.5t-184 -135.5q-17 -105 -58 -192t-90.5 -139t-99 -80t-90.5 -28q-21 0 -42.5 4.5 t-49 16.5t-51 37t-44 60t-32.5 92t-12 128zM133 1049q0 57 31 81.5t74 24.5q38 0 67 -25t29 -65q0 -48 -28 -77.5t-75 -29.5q-45 0 -71.5 25.5t-26.5 65.5zM213 343.5q5 -119.5 37.5 -200t73.5 -80.5q40 0 71 52.5t47.5 124.5t26.5 163q-89 14 -154.5 69t-68.5 128 q-38 -137 -33 -256.5zM375 741q-19 -57 11.5 -124.5t90.5 -102.5v43q0 128 -50 183q-27 29 -45 13q-5 -5 -7 -12zM459 1040q0 59 32.5 90t75.5 31t75 -27t32 -71q0 -43 -35.5 -75t-81.5 -32t-72 22t-26 62z" />
<glyph unicode="&#xf7;" horiz-adv-x="1114" d="M122 585.5q9 41.5 56 41.5l805 -9q30 -69 1 -106t-87 -35l-758 10q-26 57 -17 98.5zM410 137q-5 54 30 96.5t86 42.5q59 0 94 -33t39 -96q4 -51 -31.5 -87.5t-84.5 -36.5q-56 0 -92.5 30.5t-40.5 83.5zM475 926q0 54 36.5 97.5t94.5 43.5q48 0 73.5 -29.5t25.5 -72.5 q0 -52 -36 -94t-98 -42q-48 0 -72 27.5t-24 69.5z" />
<glyph unicode="&#xf8;" horiz-adv-x="665" d="M-8 -188l104 227q-100 100 -100 280q0 72 17 145.5t50 139t77 116.5t103 81t124 30q43 0 84 -12l102 225q50 15 76.5 -1t11.5 -48l-106 -223q52 -44 80 -113t28 -149q0 -124 -50.5 -247.5t-140.5 -206.5t-192 -83q-49 0 -92 19l-105 -221q-40 -15 -63 -2.5t-8 43.5z M168 414q-6 -91 16 -178l228 499q-26 15 -50 15q-69 0 -126.5 -87.5t-67.5 -248.5zM231 125q41 -64 91 -64q56 0 102.5 121t58.5 299q3 89 -12 154z" />
<glyph unicode="&#xf9;" horiz-adv-x="716" d="M44 227q-11 116 8.5 263t66.5 309q56 14 93 18t55 1.5t24 -15t4.5 -24t-8.5 -31.5q-33 -106 -53.5 -206.5t-25.5 -177.5t0.5 -136.5t22.5 -90.5t41 -31q17 0 34 18.5t35.5 62t35 108.5t32.5 165t27 224q79 59 147 59q52 0 54 -38q0 -8 -2 -17q-40 -165 -56 -307 t-4.5 -225.5t48.5 -83.5t73.5 36t75.5 132q23 18 51 8t21 -37q-29 -101 -98 -169.5t-156 -68.5q-75 0 -117.5 62t-50.5 166q-64 -228 -180 -228q-86 0 -136.5 69t-61.5 185zM178 1112q9 36 23.5 60t30 34t31.5 13t28 -2t18 -13q104 -127 213 -235q-1 -32 -18.5 -45t-38.5 -4 q-69 30 -149.5 82t-137.5 110z" />
<glyph unicode="&#xfa;" horiz-adv-x="716" d="M44 227q-11 116 8.5 263t66.5 309q56 14 93 18t55 1.5t24 -15t4.5 -24t-8.5 -31.5q-33 -106 -53.5 -206.5t-25.5 -177.5t0.5 -136.5t22.5 -90.5t41 -31q17 0 34 18.5t35.5 62t35 108.5t32.5 165t27 224q79 59 147 59q52 0 54 -38q0 -8 -2 -17q-40 -165 -56 -307 t-4.5 -225.5t48.5 -83.5t73.5 36t75.5 132q23 18 51 8t21 -37q-29 -101 -98 -169.5t-156 -68.5q-75 0 -117.5 62t-50.5 166q-64 -228 -180 -228q-86 0 -136.5 69t-61.5 185zM270 961q198 207 277 299q27 24 55.5 21.5t50.5 -31t21 -66.5q-71 -58 -330 -258q-29 -21 -53 -7 t-21 42z" />
<glyph unicode="&#xfb;" horiz-adv-x="716" d="M44 227q-11 116 8.5 263t66.5 309q56 14 93 18t55 1.5t24 -15t4.5 -24t-8.5 -31.5q-33 -106 -53.5 -206.5t-25.5 -177.5t0.5 -136.5t22.5 -90.5t41 -31q17 0 34 18.5t35.5 62t35 108.5t32.5 165t27 224q79 59 147 59q52 0 54 -38q0 -8 -2 -17q-40 -165 -56 -307 t-4.5 -225.5t48.5 -83.5t73.5 36t75.5 132q23 18 51 8t21 -37q-29 -101 -98 -169.5t-156 -68.5q-75 0 -117.5 62t-50.5 166q-64 -228 -180 -228q-86 0 -136.5 69t-61.5 185zM171 938q-4 12 1 23q50 74 137 161.5t140 87.5q32 0 61.5 -22.5t58 -72t41 -76t36.5 -83.5 q5 -11 7 -16q-43 -32 -77 -43.5t-53 -4.5t-25 26q-15 51 -42 107t-44 56q-44 0 -179 -168q-23 -4 -40.5 4.5t-21.5 20.5z" />
<glyph unicode="&#xfc;" horiz-adv-x="716" d="M44 227q-11 116 8.5 263t66.5 309q56 14 93 18t55 1.5t24 -15t4.5 -24t-8.5 -31.5q-33 -106 -53.5 -206.5t-25.5 -177.5t0.5 -136.5t22.5 -90.5t41 -31q17 0 34 18.5t35.5 62t35 108.5t32.5 165t27 224q79 59 147 59q52 0 54 -38q0 -8 -2 -17q-40 -165 -56 -307 t-4.5 -225.5t48.5 -83.5t73.5 36t75.5 132q23 18 51 8t21 -37q-29 -101 -98 -169.5t-156 -68.5q-75 0 -117.5 62t-50.5 166q-64 -228 -180 -228q-86 0 -136.5 69t-61.5 185zM129 1049q0 57 30.5 81.5t73.5 24.5q39 0 68 -25t29 -65q0 -48 -28 -77.5t-75 -29.5 q-45 0 -71.5 25.5t-26.5 65.5zM455 1040q0 59 32.5 90t75.5 31t75 -27t32 -71q0 -43 -35.5 -75t-81.5 -32t-72 22t-26 62z" />
<glyph unicode="&#xfd;" horiz-adv-x="684" d="M-150 -467q0 39 30.5 62.5t56.5 23.5q25 -34 39 -50.5t44 -46t62.5 -43.5t67.5 -14q44 0 82.5 36t75 118t68 228.5t56.5 353.5q-20 -80 -55 -133.5t-69 -74t-66 -20.5q-115 0 -165 124t-33.5 315.5t87.5 406.5q91 23 136.5 20.5t47 -23t-5.5 -48.5q-28 -76 -47.5 -151.5 t-30 -139.5t-14.5 -122.5t0 -103t12.5 -77.5t22.5 -50.5t31 -17.5q99 0 155 517q81 61 152 60q55 -1 57 -43q1 -6 0 -13l-51 -400q-19 -172 -57.5 -314.5t-87 -239t-107 -163t-117.5 -96.5t-118 -30q-38 0 -80 8.5t-83.5 25t-68.5 46.5t-27 69zM285 942q188 197 276 299 q27 24 55.5 21.5t50.5 -31t21 -66.5q-71 -58 -330 -258q-29 -21 -52.5 -7t-20.5 42z" />
<glyph unicode="&#xfe;" horiz-adv-x="677" d="M-31 -563q39 478 64.5 762t66.5 637.5t84 601.5q36 41 90 54t89 -14t20 -89q-87 -363 -135 -644q88 98 184 101q87 0 141 -83t54 -202q0 -94 -22.5 -185t-58.5 -159.5t-79.5 -122t-87.5 -81t-80 -27.5q-61 0 -135 30q-7 -53 -12 -105.5t-9 -117t-6.5 -105t-7 -125 t-6.5 -122.5q-48 -35 -84.5 -42.5t-53 4.5t-16.5 34zM170 127q72 -59 127 -59q47 0 88.5 79.5t63 188.5t20.5 205q0 90 -25.5 144t-62.5 54q-60 0 -109 -102.5t-77 -282.5q-19 -140 -25 -227z" />
<glyph unicode="&#xff;" horiz-adv-x="684" d="M-150 -467q0 39 30.5 62.5t56.5 23.5q25 -34 39 -50.5t44 -46t62.5 -43.5t67.5 -14q44 0 82.5 36t75 118t68 228.5t56.5 353.5q-20 -80 -55 -133.5t-69 -74t-66 -20.5q-115 0 -165 124t-33.5 315.5t87.5 406.5q91 23 136.5 20.5t47 -23t-5.5 -48.5q-28 -76 -47.5 -151.5 t-30 -139.5t-14.5 -122.5t0 -103t12.5 -77.5t22.5 -50.5t31 -17.5q99 0 155 517q81 61 152 60q55 -1 57 -43q1 -6 0 -13l-51 -400q-19 -172 -57.5 -314.5t-87 -239t-107 -163t-117.5 -96.5t-118 -30q-38 0 -80 8.5t-83.5 25t-68.5 46.5t-27 69zM143 1049q0 57 31 81.5 t74 24.5q38 0 67 -25t29 -65q0 -48 -27.5 -77.5t-74.5 -29.5q-45 0 -72 25.5t-27 65.5zM469 1040q0 59 33 90t76 31t74.5 -27t31.5 -71q0 -43 -35.5 -75t-81.5 -32t-72 22t-26 62z" />
<glyph unicode="&#x152;" horiz-adv-x="1511" d="M35 477q0 143 23 276t61 232.5t84 183t93.5 137t89 84.5t71.5 35q38 73 97 109.5t126 36.5q80 0 146.5 -72t101.5 -201q82 119 195.5 190t242.5 71q130 0 195 -67t65 -192q0 -131 -82 -256t-221.5 -214t-304.5 -123q45 -95 143 -95q71 0 162 39q41 17 68.5 0.5 t23.5 -65.5q-219 -129 -302 -307q-62 -134 -25 -239q30 -84 110 -102q17 -4 37 -4q89 0 179.5 85t162.5 262q22 17 54 10.5t22 -35.5q-47 -141 -130.5 -242t-176 -147.5t-185.5 -46.5q-70 0 -127.5 28t-94.5 75t-49.5 114t1 140t64.5 157.5t135 163.5q-110 3 -183 51 q-39 -168 -106 -305t-143 -221t-154 -128.5t-148 -44.5q-26 0 -52 5.5t-59 23t-61.5 45.5t-56.5 77t-47.5 112.5t-32 157t-12.5 206.5zM240 520q0 -149 26.5 -274.5t73.5 -199t104 -73.5q103 0 190.5 199.5t119.5 521.5q-172 20 -266.5 119t-94.5 301q0 87 17 174 q-82 -151 -126 -367t-44 -401zM524 1257q0 -165 65 -274.5t173 -159.5q6 88 6 187q0 227 -78 341q-47 69 -96 59t-65 -91q-5 -28 -5 -62zM995 784q104 8 192.5 59.5t145 127.5t88 165t31.5 177q0 61 -25 105t-71 44q-85 0 -162 -71t-124.5 -174.5t-69 -222t-5.5 -210.5z" />
<glyph unicode="&#x153;" horiz-adv-x="1005" d="M35 311q0 95 16 172.5t40.5 126t56.5 81t62 45.5t58 12q26 49 64.5 75.5t81.5 26.5q56 0 104 -29t78 -86q49 68 109 99.5t108 31.5q86 0 128 -52t42 -136q0 -145 -90 -261.5t-225 -160.5q6 -122 51.5 -188t114.5 -66q68 0 132 78t105 201q26 14 43.5 11.5t26 -13.5 t6.5 -23q-9 -52 -42 -110.5t-79.5 -109.5t-108.5 -84.5t-124 -33.5q-95 0 -171 57t-110 164q-55 -80 -122 -124t-118 -44q-26 0 -53 6.5t-61.5 28t-60.5 57t-44 100t-18 148.5zM213.5 290.5q9.5 -98.5 41.5 -163t69 -64.5q39 0 71 49.5t54 131.5q-97 22 -155 90t-67 172 q-23 -117 -13.5 -215.5zM344 618q-6 -229 121 -292q22 126 22 231q0 145 -49 189q-31 28 -61 -5q-33 -38 -33 -123zM668 332q81 41 123.5 138t42.5 218q0 76 -33 76q-11 0 -26.5 -15t-33 -49.5t-33 -83t-27 -123t-13.5 -161.5z" />
<glyph unicode="&#x178;" horiz-adv-x="950" d="M-72 -20q4 47 35.5 95t77.5 48q25 0 75 -34.5t98.5 -76t104.5 -76t91 -34.5q60 0 120.5 118t105 292t75.5 355t43 326q-47 -111 -101.5 -196t-100 -131t-91 -75t-73 -37.5t-48.5 -8.5q-36 0 -59.5 23t-37 81t-11 151t24 238.5t62.5 337.5q9 39 -4.5 62.5t-56.5 13.5 l-283 -66q-36 -5 -43 33q-6 40 24 75q8 10 19 17q5 0 172 20t220 19q93 -3 131.5 -39t23.5 -104q-75 -329 -98.5 -509.5t10.5 -186.5q64 0 146.5 131.5t207.5 447.5q10 26 49.5 39t88.5 0.5t80 -53.5q-38 -305 -107 -578t-151.5 -466t-176.5 -305.5t-182 -112.5 q-84 0 -227 53t-234 113zM373 1716q0 57 31 82t73 25q38 0 67 -25t29 -65q0 -48 -27.5 -77.5t-74.5 -29.5q-45 0 -71.5 25t-26.5 65zM801 1708q0 59 32.5 90t75.5 31t75 -27t32 -71q0 -43 -35.5 -75t-81.5 -32t-72 22t-26 62z" />
<glyph unicode="&#x2c6;" horiz-adv-x="702" d="M112 938q-4 12 1 23q28 42 74 96t105.5 103.5t96.5 49.5q22 0 43 -11t41 -35.5t34 -44.5t32.5 -58t25.5 -53.5t23 -53.5q4 -9 6 -14q-43 -32 -77.5 -43.5t-53.5 -4.5t-25 26q-15 51 -42 107t-44 56q-43 0 -178 -168q-23 -4 -40.5 4.5t-21.5 20.5z" />
<glyph unicode="&#x2dc;" horiz-adv-x="733" d="M109 1055q27 60 80.5 92.5t97.5 32.5q31 0 57 -12.5t44 -31t34.5 -36.5t38.5 -30.5t47 -12.5q34 0 74 57q30 0 42 -16t1 -41q-27 -60 -81 -92.5t-98 -32.5q-36 0 -66 12.5t-49 30.5t-35 36.5t-34 31t-37 12.5q-33 0 -73 -58q-30 0 -42 16.5t-1 41.5z" />
<glyph unicode="&#x2000;" horiz-adv-x="959" />
<glyph unicode="&#x2001;" horiz-adv-x="1919" />
<glyph unicode="&#x2002;" horiz-adv-x="959" />
<glyph unicode="&#x2003;" horiz-adv-x="1919" />
<glyph unicode="&#x2004;" horiz-adv-x="639" />
<glyph unicode="&#x2005;" horiz-adv-x="479" />
<glyph unicode="&#x2006;" horiz-adv-x="319" />
<glyph unicode="&#x2007;" horiz-adv-x="319" />
<glyph unicode="&#x2008;" horiz-adv-x="239" />
<glyph unicode="&#x2009;" horiz-adv-x="383" />
<glyph unicode="&#x200a;" horiz-adv-x="106" />
<glyph unicode="&#x2010;" horiz-adv-x="501" d="M33.5 436.5q2.5 22.5 9.5 38.5l377 -2q37 -1 47.5 -40.5t-10.5 -80.5l-346 -16q-32 0 -51.5 16t-24 39t-2 45.5z" />
<glyph unicode="&#x2011;" horiz-adv-x="501" d="M33.5 436.5q2.5 22.5 9.5 38.5l377 -2q37 -1 47.5 -40.5t-10.5 -80.5l-346 -16q-32 0 -51.5 16t-24 39t-2 45.5z" />
<glyph unicode="&#x2012;" horiz-adv-x="501" d="M33.5 436.5q2.5 22.5 9.5 38.5l377 -2q37 -1 47.5 -40.5t-10.5 -80.5l-346 -16q-32 0 -51.5 16t-24 39t-2 45.5z" />
<glyph unicode="&#x2013;" horiz-adv-x="1013" d="M32.5 416.5q5.5 30.5 22.5 58.5l889 -2q36 -1 38 -40.5t-21 -80.5l-857 -16q-43 0 -60 25t-11.5 55.5z" />
<glyph unicode="&#x2014;" horiz-adv-x="2058" d="M33 446q2 25 10 41q171 0 949.5 -3t949.5 -3q36 0 53 -3t26.5 -16t5 -36.5t-19.5 -67.5q-191 6 -1022.5 -10t-871.5 -16q-32 0 -52 18.5t-25 44.5t-3 51z" />
<glyph unicode="&#x2018;" horiz-adv-x="456" d="M118 1467q45 145 199 241q32 19 56 3t24 -44q-65 -69 -90.5 -131.5t-13 -108t56.5 -75.5q15 -10 19.5 -28.5t-3 -39.5t-23.5 -39.5t-46 -30.5t-68 -12q-68 0 -103 71q-42 83 -8 194z" />
<glyph unicode="&#x2019;" horiz-adv-x="456" d="M102 1249q65 69 91 131.5t13.5 108.5t-56.5 76q-15 10 -19.5 28.5t2.5 39t23 39t46 30.5t68 12q68 0 103 -71q42 -83 8 -194q-45 -145 -199 -241q-32 -19 -56 -3t-24 44z" />
<glyph unicode="&#x201a;" horiz-adv-x="456" d="M102 -236q65 69 91 131.5t13.5 108.5t-56.5 76q-15 10 -19.5 28.5t2.5 39t23 39t46 30.5t68 12q68 0 104 -71q41 -83 7 -194q-46 -144 -199 -240q-32 -19 -56 -3.5t-24 43.5z" />
<glyph unicode="&#x201c;" horiz-adv-x="743" d="M125 1477q45 151 189 241q2 1 3 2q32 18 56 2t24 -43q-89 -104 -106.5 -190t35.5 -141q16 -17 20 -42.5t-4 -49.5t-38 -41t-77 -17q-66 0 -99 75q-38 88 -3 204zM409 1463q45 145 199 241q32 19 56 3t24 -44q-65 -69 -90.5 -131.5t-13 -108t56.5 -75.5q15 -10 19.5 -28.5 t-3 -39.5t-23.5 -39.5t-46 -30.5t-68 -12q-68 0 -103 71q-42 83 -8 194z" />
<glyph unicode="&#x201d;" horiz-adv-x="743" d="M102 1249q65 69 91 131.5t13.5 108.5t-56.5 76q-15 10 -19.5 28.5t2.5 39t23 39t46 30.5t68 12q68 0 103 -71q42 -83 8 -194q-45 -145 -199 -241q-32 -19 -56 -3t-24 44zM393 1233q89 104 106.5 190.5t-34.5 141.5q-22 24 -23.5 58t29 62.5t92.5 28.5q66 0 99 -75 q38 -88 3 -204q-45 -151 -189 -241q-2 -1 -3 -2q-32 -18 -56 -2t-24 43z" />
<glyph unicode="&#x201e;" horiz-adv-x="743" d="M102 -236q65 69 91 131.5t13.5 108.5t-56.5 76q-15 10 -19.5 28.5t2.5 39t23 39t46 30.5t68 12q68 0 104 -71q41 -83 7 -194q-46 -144 -199 -240q-32 -19 -56 -3.5t-24 43.5zM393 -252q89 104 106.5 190.5t-34.5 141.5q-22 24 -23.5 58t29 62.5t92.5 28.5q66 0 99 -75 q38 -88 3 -204q-45 -151 -189 -241q-2 -1 -3 -2q-32 -18 -56 -2t-24 43z" />
<glyph unicode="&#x2022;" horiz-adv-x="729" d="M178 782q0 94 70.5 162t163.5 68q114 0 190 -62.5t76 -167.5q0 -112 -65.5 -195t-168.5 -83q-120 0 -193 73t-73 205z" />
<glyph unicode="&#x2026;" horiz-adv-x="1912" d="M178 92q0 56 32.5 97.5t84.5 41.5q60 0 96.5 -36.5t36.5 -102.5q0 -47 -35.5 -81t-81.5 -34q-57 0 -95 31t-38 84zM893 92q0 55 37.5 97t87.5 42q58 0 91.5 -31.5t33.5 -90.5q0 -56 -33.5 -94t-85.5 -38q-56 0 -92 31t-39 84zM1589 88q0 55 33.5 94t87.5 39 q63 0 100 -34.5t37 -96.5q0 -47 -36.5 -80t-84.5 -33q-58 0 -97.5 30t-39.5 81z" />
<glyph unicode="&#x202f;" horiz-adv-x="383" />
<glyph unicode="&#x2039;" horiz-adv-x="780" d="M98 534.5q6 26.5 29 38.5l504 289q28 -3 42.5 -21.5t11.5 -39.5t-19 -31l-349 -246l320 -235q-9 -37 -35.5 -54.5t-48.5 -3.5l-442 242q-19 35 -13 61.5z" />
<glyph unicode="&#x203a;" horiz-adv-x="778" d="M99.5 248q-2.5 36 21.5 51l356 233l-307 283q7 37 41 56t55 3l402 -311q21 -62 -25 -86l-510 -278q-31 13 -33.5 49z" />
<glyph unicode="&#x205f;" horiz-adv-x="479" />
<glyph unicode="&#x20ac;" horiz-adv-x="825" d="M-18.5 566q5.5 31 22.5 59h123q2 45 14 131l-73 -2q-43 0 -60 25t-12 55.5t22 58.5h154q72 264 228 424t339 160q164 0 220 -135q44 -106 7 -244q-31 -117 -96 -166q-31 -23 -61 -23q-35 0 -55.5 13t-21.5 28.5t3 26.5q46 78 67.5 152t16.5 126.5t-32.5 84.5t-73.5 32 q-71 0 -130.5 -36.5t-103 -103t-73.5 -152t-48 -189.5h283q36 -1 37.5 -40.5t-21.5 -80.5l-315 -10q-8 -90 -8 -137h231q36 -1 38 -40.5t-21 -80.5l-246 -8q11 -186 67 -283.5t154 -97.5q51 0 97.5 30t107.5 107q39 -3 51 -30t-12 -58q-149 -189 -316 -189q-161 0 -259 142 t-103 372l-70 -2q-43 0 -60 25t-11.5 56z" />
<glyph unicode="&#x2122;" horiz-adv-x="976" d="M103 1420.5q-2 27.5 12 52.5q63 0 159 4t160 4q24 0 30 -18t-5 -44q-47 2 -125 -6q-3 -28 -10.5 -91t-15 -120.5t-14.5 -110t-7 -53.5q-30 -19 -76 -17q-32 2 -29 19l58 365q-58 -12 -111 -12q-24 0 -26 27.5zM414 1042l73 418q43 16 83.5 15.5t41.5 -21.5l27 -266 l111 282q30 10 77.5 8.5t44.5 -20.5l-41 -428q-24 -8 -60.5 -6.5t-33.5 18.5l33 291l-125 -303q-66 -17 -72 8l-43 295l-43 -303q-76 -19 -73 12z" />
<glyph unicode="&#x25fc;" horiz-adv-x="880" d="M0 0v881h881v-881h-881z" />
<glyph unicode="&#xfb01;" horiz-adv-x="774" d="M-10 283q8 87 38.5 123.5t63.5 27.5q43 508 98 883q76 29 132 31t80.5 -20t17.5 -60q-144 -760 -187 -1073q67 -110 122 -94.5t110 169.5q-7 200 57 473q45 19 79.5 27t54 5.5t32 -11.5t13.5 -23t-1 -30q-26 -111 -43.5 -198.5t-28.5 -160.5t-13 -124.5t4 -86.5t21.5 -52 t39.5 -17q37 0 73.5 36t75.5 132q23 18 51 8t21 -37q-29 -99 -102.5 -169t-161.5 -71q-47 0 -87.5 35.5t-62.5 108.5q-57 -97 -122 -117q46 -97 56 -204t-13.5 -197.5t-66.5 -164.5t-104 -116.5t-124 -42.5q-13 0 -20.5 1.5t-21.5 9t-21.5 29.5t-8.5 56q6 381 31 776 q-41 51 -82 138zM150 -616q29 2 59.5 32t53 86t30 127.5t-12.5 168t-71 196.5q-31 -242 -59 -610zM543 1010q0 46 33 79t77 33q125 0 125 -114q0 -37 -24 -63t-59 -32.5t-69.5 -0.5t-58.5 32.5t-24 65.5z" />
<glyph unicode="&#xfb02;" horiz-adv-x="800" d="M37 330q-6 37 12.5 70t46.5 53q46 489 117 944q35 41 87.5 54t88.5 -14t23 -89q-106 -550 -166 -1104q45 -53 97.5 -32t94.5 112q-10 339 183 1161q27 27 71 16q61 -18 100.5 -77t54 -144t6 -193.5t-38 -220t-83.5 -228t-125 -214.5q-1 -162 26 -257t73 -95q37 0 73.5 36 t75.5 132q34 17 58 8t14 -37q-40 -101 -109.5 -169.5t-154.5 -68.5q-168 0 -209 213q-64 -73 -140 -82q55 -153 65.5 -300t-19.5 -253.5t-94.5 -171.5t-151.5 -65q-39 0 -70 33q3 442 35 891q-27 45 -41 92zM170 -604q26 2 49 32t37.5 84t18.5 121.5t-10 155t-46 174.5 q-8 -82 -49 -567zM616 594q72 155 103 306.5t8 264.5q-89 -307 -111 -571z" />
</font>
</defs>
</svg>
